999
QET
0
SECTION
2
HEADER
9
$ACADVER
1
AC1006
9
$INSBASE
10
0.0
20
0.0
30
0.0
9
$EXTMIN
10
0.0
20
0.0
9
$EXTMAX
10
4000.0
20
4000.0
9
$LIMMIN
10
0.0
20
0.0
9
$LIMMAX
10
4000.0
20
4000.0
0
ENDSEC
0
SECTION
2
TABLES
0
TABLE
2
VPORT
70
1
0
VPORT
2
*ACTIVE
70
0
10
0
20
0
11
1
21
1
12
2000
22
1350
13
0
23
0
14
1
24
1
15
0
25
0
16
0
26
0
36
1
17
0
27
0
37
0
40
2732.5
41
2.558
42
50
43
0
44
0
50
0
51
0
71
0
72
100
73
1
74
1
75
0
76
0
77
0
78
0
0
ENDTAB
0
TABLE
2
LTYPE
70
1
0
LTYPE
2
CONTINUOUS
70
64
3
Solid Line
72
65
73
0
40
0
0
ENDTAB
0
ENDSEC
0
SECTION
2
BLOCKS
0
ENDSEC
0
SECTION
2
ENTITIES
0
POLYLINE
8
0
62
0
66
1
70
8
10
0
20
0
30
0
0
VERTEX
8
0
70
32
10
19.2308
20
2680.99
30
0
0
VERTEX
8
0
70
32
10
4019.23
20
2680.99
30
0
0
VERTEX
8
0
70
32
10
4019.23
20
-19.0141
30
0
0
VERTEX
8
0
70
32
10
19.2308
20
-19.0141
30
0
0
VERTEX
8
0
70
32
10
19.2308
20
2680.99
30
0
0
SEQEND
8
0
0
POLYLINE
8
0
62
0
66
1
70
8
10
0
20
0
30
0
0
VERTEX
8
0
70
32
10
19.2308
20
2604.93
30
0
0
VERTEX
8
0
70
32
10
96.1538
20
2604.93
30
0
0
VERTEX
8
0
70
32
10
96.1538
20
2680.99
30
0
0
VERTEX
8
0
70
32
10
19.2308
20
2680.99
30
0
0
VERTEX
8
0
70
32
10
19.2308
20
2604.93
30
0
0
SEQEND
8
0
0
POLYLINE
8
0
62
0
66
1
70
8
10
0
20
0
30
0
0
VERTEX
8
0
70
32
10
96.1538
20
2604.93
30
0
0
VERTEX
8
0
70
32
10
326.923
20
2604.93
30
0
0
VERTEX
8
0
70
32
10
326.923
20
2680.99
30
0
0
VERTEX
8
0
70
32
10
96.1538
20
2680.99
30
0
0
VERTEX
8
0
70
32
10
96.1538
20
2604.93
30
0
0
SEQEND
8
0
0
TEXT
8
0
62
0
10
153.846
20
2642.96
30
0
40
53.2394
41
1
1
0
50
0
51
0
72
1
73
2
11
211.538
21
2642.96
31
0
0
POLYLINE
8
0
62
0
66
1
70
8
10
0
20
0
30
0
0
VERTEX
8
0
70
32
10
326.923
20
2604.93
30
0
0
VERTEX
8
0
70
32
10
557.692
20
2604.93
30
0
0
VERTEX
8
0
70
32
10
557.692
20
2680.99
30
0
0
VERTEX
8
0
70
32
10
326.923
20
2680.99
30
0
0
VERTEX
8
0
70
32
10
326.923
20
2604.93
30
0
0
SEQEND
8
0
0
TEXT
8
0
62
0
10
384.615
20
2642.96
30
0
40
53.2394
41
1
1
1
50
0
51
0
72
1
73
2
11
442.308
21
2642.96
31
0
0
POLYLINE
8
0
62
0
66
1
70
8
10
0
20
0
30
0
0
VERTEX
8
0
70
32
10
557.692
20
2604.93
30
0
0
VERTEX
8
0
70
32
10
788.462
20
2604.93
30
0
0
VERTEX
8
0
70
32
10
788.462
20
2680.99
30
0
0
VERTEX
8
0
70
32
10
557.692
20
2680.99
30
0
0
VERTEX
8
0
70
32
10
557.692
20
2604.93
30
0
0
SEQEND
8
0
0
TEXT
8
0
62
0
10
615.385
20
2642.96
30
0
40
53.2394
41
1
1
2
50
0
51
0
72
1
73
2
11
673.077
21
2642.96
31
0
0
POLYLINE
8
0
62
0
66
1
70
8
10
0
20
0
30
0
0
VERTEX
8
0
70
32
10
788.462
20
2604.93
30
0
0
VERTEX
8
0
70
32
10
1019.23
20
2604.93
30
0
0
VERTEX
8
0
70
32
10
1019.23
20
2680.99
30
0
0
VERTEX
8
0
70
32
10
788.462
20
2680.99
30
0
0
VERTEX
8
0
70
32
10
788.462
20
2604.93
30
0
0
SEQEND
8
0
0
TEXT
8
0
62
0
10
846.154
20
2642.96
30
0
40
53.2394
41
1
1
3
50
0
51
0
72
1
73
2
11
903.846
21
2642.96
31
0
0
POLYLINE
8
0
62
0
66
1
70
8
10
0
20
0
30
0
0
VERTEX
8
0
70
32
10
1019.23
20
2604.93
30
0
0
VERTEX
8
0
70
32
10
1250
20
2604.93
30
0
0
VERTEX
8
0
70
32
10
1250
20
2680.99
30
0
0
VERTEX
8
0
70
32
10
1019.23
20
2680.99
30
0
0
VERTEX
8
0
70
32
10
1019.23
20
2604.93
30
0
0
SEQEND
8
0
0
TEXT
8
0
62
0
10
1076.92
20
2642.96
30
0
40
53.2394
41
1
1
4
50
0
51
0
72
1
73
2
11
1134.62
21
2642.96
31
0
0
POLYLINE
8
0
62
0
66
1
70
8
10
0
20
0
30
0
0
VERTEX
8
0
70
32
10
1250
20
2604.93
30
0
0
VERTEX
8
0
70
32
10
1480.77
20
2604.93
30
0
0
VERTEX
8
0
70
32
10
1480.77
20
2680.99
30
0
0
VERTEX
8
0
70
32
10
1250
20
2680.99
30
0
0
VERTEX
8
0
70
32
10
1250
20
2604.93
30
0
0
SEQEND
8
0
0
TEXT
8
0
62
0
10
1307.69
20
2642.96
30
0
40
53.2394
41
1
1
5
50
0
51
0
72
1
73
2
11
1365.38
21
2642.96
31
0
0
POLYLINE
8
0
62
0
66
1
70
8
10
0
20
0
30
0
0
VERTEX
8
0
70
32
10
1480.77
20
2604.93
30
0
0
VERTEX
8
0
70
32
10
1711.54
20
2604.93
30
0
0
VERTEX
8
0
70
32
10
1711.54
20
2680.99
30
0
0
VERTEX
8
0
70
32
10
1480.77
20
2680.99
30
0
0
VERTEX
8
0
70
32
10
1480.77
20
2604.93
30
0
0
SEQEND
8
0
0
TEXT
8
0
62
0
10
1538.46
20
2642.96
30
0
40
53.2394
41
1
1
6
50
0
51
0
72
1
73
2
11
1596.15
21
2642.96
31
0
0
POLYLINE
8
0
62
0
66
1
70
8
10
0
20
0
30
0
0
VERTEX
8
0
70
32
10
1711.54
20
2604.93
30
0
0
VERTEX
8
0
70
32
10
1942.31
20
2604.93
30
0
0
VERTEX
8
0
70
32
10
1942.31
20
2680.99
30
0
0
VERTEX
8
0
70
32
10
1711.54
20
2680.99
30
0
0
VERTEX
8
0
70
32
10
1711.54
20
2604.93
30
0
0
SEQEND
8
0
0
TEXT
8
0
62
0
10
1769.23
20
2642.96
30
0
40
53.2394
41
1
1
7
50
0
51
0
72
1
73
2
11
1826.92
21
2642.96
31
0
0
POLYLINE
8
0
62
0
66
1
70
8
10
0
20
0
30
0
0
VERTEX
8
0
70
32
10
1942.31
20
2604.93
30
0
0
VERTEX
8
0
70
32
10
2173.08
20
2604.93
30
0
0
VERTEX
8
0
70
32
10
2173.08
20
2680.99
30
0
0
VERTEX
8
0
70
32
10
1942.31
20
2680.99
30
0
0
VERTEX
8
0
70
32
10
1942.31
20
2604.93
30
0
0
SEQEND
8
0
0
TEXT
8
0
62
0
10
2000
20
2642.96
30
0
40
53.2394
41
1
1
8
50
0
51
0
72
1
73
2
11
2057.69
21
2642.96
31
0
0
POLYLINE
8
0
62
0
66
1
70
8
10
0
20
0
30
0
0
VERTEX
8
0
70
32
10
2173.08
20
2604.93
30
0
0
VERTEX
8
0
70
32
10
2403.85
20
2604.93
30
0
0
VERTEX
8
0
70
32
10
2403.85
20
2680.99
30
0
0
VERTEX
8
0
70
32
10
2173.08
20
2680.99
30
0
0
VERTEX
8
0
70
32
10
2173.08
20
2604.93
30
0
0
SEQEND
8
0
0
TEXT
8
0
62
0
10
2230.77
20
2642.96
30
0
40
53.2394
41
1
1
9
50
0
51
0
72
1
73
2
11
2288.46
21
2642.96
31
0
0
POLYLINE
8
0
62
0
66
1
70
8
10
0
20
0
30
0
0
VERTEX
8
0
70
32
10
2403.85
20
2604.93
30
0
0
VERTEX
8
0
70
32
10
2634.62
20
2604.93
30
0
0
VERTEX
8
0
70
32
10
2634.62
20
2680.99
30
0
0
VERTEX
8
0
70
32
10
2403.85
20
2680.99
30
0
0
VERTEX
8
0
70
32
10
2403.85
20
2604.93
30
0
0
SEQEND
8
0
0
TEXT
8
0
62
0
10
2461.54
20
2642.96
30
0
40
53.2394
41
1
1
10
50
0
51
0
72
1
73
2
11
2519.23
21
2642.96
31
0
0
POLYLINE
8
0
62
0
66
1
70
8
10
0
20
0
30
0
0
VERTEX
8
0
70
32
10
2634.62
20
2604.93
30
0
0
VERTEX
8
0
70
32
10
2865.38
20
2604.93
30
0
0
VERTEX
8
0
70
32
10
2865.38
20
2680.99
30
0
0
VERTEX
8
0
70
32
10
2634.62
20
2680.99
30
0
0
VERTEX
8
0
70
32
10
2634.62
20
2604.93
30
0
0
SEQEND
8
0
0
TEXT
8
0
62
0
10
2692.31
20
2642.96
30
0
40
53.2394
41
1
1
11
50
0
51
0
72
1
73
2
11
2750
21
2642.96
31
0
0
POLYLINE
8
0
62
0
66
1
70
8
10
0
20
0
30
0
0
VERTEX
8
0
70
32
10
2865.38
20
2604.93
30
0
0
VERTEX
8
0
70
32
10
3096.15
20
2604.93
30
0
0
VERTEX
8
0
70
32
10
3096.15
20
2680.99
30
0
0
VERTEX
8
0
70
32
10
2865.38
20
2680.99
30
0
0
VERTEX
8
0
70
32
10
2865.38
20
2604.93
30
0
0
SEQEND
8
0
0
TEXT
8
0
62
0
10
2923.08
20
2642.96
30
0
40
53.2394
41
1
1
12
50
0
51
0
72
1
73
2
11
2980.77
21
2642.96
31
0
0
POLYLINE
8
0
62
0
66
1
70
8
10
0
20
0
30
0
0
VERTEX
8
0
70
32
10
3096.15
20
2604.93
30
0
0
VERTEX
8
0
70
32
10
3326.92
20
2604.93
30
0
0
VERTEX
8
0
70
32
10
3326.92
20
2680.99
30
0
0
VERTEX
8
0
70
32
10
3096.15
20
2680.99
30
0
0
VERTEX
8
0
70
32
10
3096.15
20
2604.93
30
0
0
SEQEND
8
0
0
TEXT
8
0
62
0
10
3153.85
20
2642.96
30
0
40
53.2394
41
1
1
13
50
0
51
0
72
1
73
2
11
3211.54
21
2642.96
31
0
0
POLYLINE
8
0
62
0
66
1
70
8
10
0
20
0
30
0
0
VERTEX
8
0
70
32
10
3326.92
20
2604.93
30
0
0
VERTEX
8
0
70
32
10
3557.69
20
2604.93
30
0
0
VERTEX
8
0
70
32
10
3557.69
20
2680.99
30
0
0
VERTEX
8
0
70
32
10
3326.92
20
2680.99
30
0
0
VERTEX
8
0
70
32
10
3326.92
20
2604.93
30
0
0
SEQEND
8
0
0
TEXT
8
0
62
0
10
3384.62
20
2642.96
30
0
40
53.2394
41
1
1
14
50
0
51
0
72
1
73
2
11
3442.31
21
2642.96
31
0
0
POLYLINE
8
0
62
0
66
1
70
8
10
0
20
0
30
0
0
VERTEX
8
0
70
32
10
3557.69
20
2604.93
30
0
0
VERTEX
8
0
70
32
10
3788.46
20
2604.93
30
0
0
VERTEX
8
0
70
32
10
3788.46
20
2680.99
30
0
0
VERTEX
8
0
70
32
10
3557.69
20
2680.99
30
0
0
VERTEX
8
0
70
32
10
3557.69
20
2604.93
30
0
0
SEQEND
8
0
0
TEXT
8
0
62
0
10
3615.38
20
2642.96
30
0
40
53.2394
41
1
1
15
50
0
51
0
72
1
73
2
11
3673.08
21
2642.96
31
0
0
POLYLINE
8
0
62
0
66
1
70
8
10
0
20
0
30
0
0
VERTEX
8
0
70
32
10
3788.46
20
2604.93
30
0
0
VERTEX
8
0
70
32
10
4019.23
20
2604.93
30
0
0
VERTEX
8
0
70
32
10
4019.23
20
2680.99
30
0
0
VERTEX
8
0
70
32
10
3788.46
20
2680.99
30
0
0
VERTEX
8
0
70
32
10
3788.46
20
2604.93
30
0
0
SEQEND
8
0
0
TEXT
8
0
62
0
10
3846.15
20
2642.96
30
0
40
53.2394
41
1
1
16
50
0
51
0
72
1
73
2
11
3903.85
21
2642.96
31
0
0
POLYLINE
8
0
62
0
66
1
70
8
10
0
20
0
30
0
0
VERTEX
8
0
70
32
10
19.2308
20
2300.7
30
0
0
VERTEX
8
0
70
32
10
96.1538
20
2300.7
30
0
0
VERTEX
8
0
70
32
10
96.1538
20
2604.93
30
0
0
VERTEX
8
0
70
32
10
19.2308
20
2604.93
30
0
0
VERTEX
8
0
70
32
10
19.2308
20
2300.7
30
0
0
SEQEND
8
0
0
TEXT
8
0
62
0
10
26.9231
20
2422.39
30
0
40
53.8462
41
1
1
A
50
0
51
0
72
1
73
2
11
57.6923
21
2422.39
31
0
0
POLYLINE
8
0
62
0
66
1
70
8
10
0
20
0
30
0
0
VERTEX
8
0
70
32
10
19.2308
20
1996.48
30
0
0
VERTEX
8
0
70
32
10
96.1538
20
1996.48
30
0
0
VERTEX
8
0
70
32
10
96.1538
20
2300.7
30
0
0
VERTEX
8
0
70
32
10
19.2308
20
2300.7
30
0
0
VERTEX
8
0
70
32
10
19.2308
20
1996.48
30
0
0
SEQEND
8
0
0
TEXT
8
0
62
0
10
26.9231
20
2118.17
30
0
40
53.8462
41
1
1
B
50
0
51
0
72
1
73
2
11
57.6923
21
2118.17
31
0
0
POLYLINE
8
0
62
0
66
1
70
8
10
0
20
0
30
0
0
VERTEX
8
0
70
32
10
19.2308
20
1692.25
30
0
0
VERTEX
8
0
70
32
10
96.1538
20
1692.25
30
0
0
VERTEX
8
0
70
32
10
96.1538
20
1996.48
30
0
0
VERTEX
8
0
70
32
10
19.2308
20
1996.48
30
0
0
VERTEX
8
0
70
32
10
19.2308
20
1692.25
30
0
0
SEQEND
8
0
0
TEXT
8
0
62
0
10
26.9231
20
1813.94
30
0
40
53.8462
41
1
1
C
50
0
51
0
72
1
73
2
11
57.6923
21
1813.94
31
0
0
POLYLINE
8
0
62
0
66
1
70
8
10
0
20
0
30
0
0
VERTEX
8
0
70
32
10
19.2308
20
1388.03
30
0
0
VERTEX
8
0
70
32
10
96.1538
20
1388.03
30
0
0
VERTEX
8
0
70
32
10
96.1538
20
1692.25
30
0
0
VERTEX
8
0
70
32
10
19.2308
20
1692.25
30
0
0
VERTEX
8
0
70
32
10
19.2308
20
1388.03
30
0
0
SEQEND
8
0
0
TEXT
8
0
62
0
10
26.9231
20
1509.72
30
0
40
53.8462
41
1
1
D
50
0
51
0
72
1
73
2
11
57.6923
21
1509.72
31
0
0
POLYLINE
8
0
62
0
66
1
70
8
10
0
20
0
30
0
0
VERTEX
8
0
70
32
10
19.2308
20
1083.8
30
0
0
VERTEX
8
0
70
32
10
96.1538
20
1083.8
30
0
0
VERTEX
8
0
70
32
10
96.1538
20
1388.03
30
0
0
VERTEX
8
0
70
32
10
19.2308
20
1388.03
30
0
0
VERTEX
8
0
70
32
10
19.2308
20
1083.8
30
0
0
SEQEND
8
0
0
TEXT
8
0
62
0
10
26.9231
20
1205.49
30
0
40
53.8462
41
1
1
E
50
0
51
0
72
1
73
2
11
57.6923
21
1205.49
31
0
0
POLYLINE
8
0
62
0
66
1
70
8
10
0
20
0
30
0
0
VERTEX
8
0
70
32
10
19.2308
20
779.577
30
0
0
VERTEX
8
0
70
32
10
96.1538
20
779.577
30
0
0
VERTEX
8
0
70
32
10
96.1538
20
1083.8
30
0
0
VERTEX
8
0
70
32
10
19.2308
20
1083.8
30
0
0
VERTEX
8
0
70
32
10
19.2308
20
779.577
30
0
0
SEQEND
8
0
0
TEXT
8
0
62
0
10
26.9231
20
901.268
30
0
40
53.8462
41
1
1
F
50
0
51
0
72
1
73
2
11
57.6923
21
901.268
31
0
0
POLYLINE
8
0
62
0
66
1
70
8
10
0
20
0
30
0
0
VERTEX
8
0
70
32
10
19.2308
20
475.352
30
0
0
VERTEX
8
0
70
32
10
96.1538
20
475.352
30
0
0
VERTEX
8
0
70
32
10
96.1538
20
779.577
30
0
0
VERTEX
8
0
70
32
10
19.2308
20
779.577
30
0
0
VERTEX
8
0
70
32
10
19.2308
20
475.352
30
0
0
SEQEND
8
0
0
TEXT
8
0
62
0
10
26.9231
20
597.042
30
0
40
53.8462
41
1
1
G
50
0
51
0
72
1
73
2
11
57.6923
21
597.042
31
0
0
POLYLINE
8
0
62
0
66
1
70
8
10
0
20
0
30
0
0
VERTEX
8
0
70
32
10
19.2308
20
171.127
30
0
0
VERTEX
8
0
70
32
10
96.1538
20
171.127
30
0
0
VERTEX
8
0
70
32
10
96.1538
20
475.352
30
0
0
VERTEX
8
0
70
32
10
19.2308
20
475.352
30
0
0
VERTEX
8
0
70
32
10
19.2308
20
171.127
30
0
0
SEQEND
8
0
0
TEXT
8
0
62
0
10
26.9231
20
292.817
30
0
40
53.8462
41
1
1
H
50
0
51
0
72
1
73
2
11
57.6923
21
292.817
31
0
0
POLYLINE
8
0
62
0
66
1
70
8
10
0
20
0
30
0
0
VERTEX
8
0
70
32
10
19.2308
20
-19.0141
30
0
0
VERTEX
8
0
70
32
10
4019.23
20
-19.0141
30
0
0
VERTEX
8
0
70
32
10
4019.23
20
171.127
30
0
0
VERTEX
8
0
70
32
10
19.2308
20
171.127
30
0
0
VERTEX
8
0
70
32
10
19.2308
20
-19.0141
30
0
0
SEQEND
8
0
0
POLYLINE
8
0
62
0
66
1
70
8
10
0
20
0
30
0
0
VERTEX
8
0
70
32
10
19.2308
20
76.0563
30
0
0
VERTEX
8
0
70
32
10
900
20
76.0563
30
0
0
VERTEX
8
0
70
32
10
900
20
171.127
30
0
0
VERTEX
8
0
70
32
10
19.2308
20
171.127
30
0
0
VERTEX
8
0
70
32
10
19.2308
20
76.0563
30
0
0
SEQEND
8
0
0
TEXT
8
0
62
0
10
11.5385
20
123.592
30
0
40
34.2254
41
0.815527
1
 Author: Yasteer Sewpersad
50
0
51
0
72
0
73
2
11
19.2308
21
123.592
31
0
0
POLYLINE
8
0
62
0
66
1
70
8
10
0
20
0
30
0
0
VERTEX
8
0
70
32
10
900
20
-19.0141
30
0
0
VERTEX
8
0
70
32
10
3138.46
20
-19.0141
30
0
0
VERTEX
8
0
70
32
10
3138.46
20
171.127
30
0
0
VERTEX
8
0
70
32
10
900
20
171.127
30
0
0
VERTEX
8
0
70
32
10
900
20
-19.0141
30
0
0
SEQEND
8
0
0
TEXT
8
0
62
0
10
892.308
20
76.0563
30
0
40
34.2254
41
1
1
 Single Line Diagram & Fault Level Calculation
50
0
51
0
72
1
73
2
11
2019.23
21
76.0563
31
0
0
POLYLINE
8
0
62
0
66
1
70
8
10
0
20
0
30
0
0
VERTEX
8
0
70
32
10
3138.46
20
76.0563
30
0
0
VERTEX
8
0
70
32
10
4019.23
20
76.0563
30
0
0
VERTEX
8
0
70
32
10
4019.23
20
171.127
30
0
0
VERTEX
8
0
70
32
10
3138.46
20
171.127
30
0
0
VERTEX
8
0
70
32
10
3138.46
20
76.0563
30
0
0
SEQEND
8
0
0
TEXT
8
0
62
0
10
3130.77
20
123.592
30
0
40
34.2254
41
1
1
 File: 
50
0
51
0
72
0
73
2
11
3138.46
21
123.592
31
0
0
POLYLINE
8
0
62
0
66
1
70
8
10
0
20
0
30
0
0
VERTEX
8
0
70
32
10
19.2308
20
-19.0141
30
0
0
VERTEX
8
0
70
32
10
900
20
-19.0141
30
0
0
VERTEX
8
0
70
32
10
900
20
76.0563
30
0
0
VERTEX
8
0
70
32
10
19.2308
20
76.0563
30
0
0
VERTEX
8
0
70
32
10
19.2308
20
-19.0141
30
0
0
SEQEND
8
0
0
TEXT
8
0
62
0
10
11.5385
20
28.5211
30
0
40
34.2254
41
1
1
 Date: 2025/04/05
50
0
51
0
72
0
73
2
11
19.2308
21
28.5211
31
0
0
POLYLINE
8
0
62
0
66
1
70
8
10
0
20
0
30
0
0
VERTEX
8
0
70
32
10
3138.46
20
-19.0141
30
0
0
VERTEX
8
0
70
32
10
4019.23
20
-19.0141
30
0
0
VERTEX
8
0
70
32
10
4019.23
20
76.0563
30
0
0
VERTEX
8
0
70
32
10
3138.46
20
76.0563
30
0
0
VERTEX
8
0
70
32
10
3138.46
20
-19.0141
30
0
0
SEQEND
8
0
0
TEXT
8
0
62
0
10
3130.77
20
28.5211
30
0
40
34.2254
41
1
1
 Folio: 1/1
50
0
51
0
72
0
73
2
11
3138.46
21
28.5211
31
0
0
LINE
8
0
62
0
10
923.077
20
798.592
30
0
11
923.077
21
798.592
31
0
0
LINE
8
0
62
0
10
923.077
20
798.592
30
0
11
923.077
21
798.592
31
0
0
TEXT
8
0
62
0
10
2267.31
20
1003.94
30
0
40
34.2254
41
0.72
1
M
50
360
0
CIRCLE
8
0
62
0
10
2269.23
20
1019.15
30
0
40
67.3077
0
TEXT
8
0
62
0
10
1228.85
20
1003.94
30
0
40
34.2254
41
0.72
1
M
50
360
0
CIRCLE
8
0
62
0
10
1230.77
20
1019.15
30
0
40
67.3077
0
LINE
8
0
62
0
10
173.077
20
2148.59
30
0
11
211.538
21
2163.8
31
0
0
LINE
8
0
62
0
10
173.077
20
2384.37
30
0
11
211.538
21
2399.58
31
0
0
LINE
8
0
62
0
10
173.077
20
2163.8
30
0
11
211.538
21
2179.01
31
0
0
LINE
8
0
62
0
10
173.077
20
2399.58
30
0
11
211.538
21
2414.79
31
0
0
LINE
8
0
62
0
10
192.308
20
2331.13
30
0
11
192.308
21
2315.92
31
0
0
LINE
8
0
62
0
10
173.077
20
2391.97
30
0
11
211.538
21
2407.18
31
0
0
LINE
8
0
62
0
10
192.308
20
2433.8
30
0
11
192.308
21
2376.76
31
0
0
LINE
8
0
62
0
10
173.077
20
2156.2
30
0
11
211.538
21
2171.41
31
0
0
LINE
8
0
62
0
10
192.308
20
2186.62
30
0
11
192.308
21
2129.58
31
0
0
CIRCLE
8
0
62
0
10
192.308
20
2319.72
30
0
40
57.6923
0
CIRCLE
8
0
62
0
10
192.308
20
2243.66
30
0
40
57.6923
0
POLYLINE
8
0
62
0
66
1
70
8
10
0
20
0
30
0
0
VERTEX
8
0
70
32
10
176.923
20
2342.54
30
0
0
VERTEX
8
0
70
32
10
192.308
20
2331.13
30
0
0
VERTEX
8
0
70
32
10
207.692
20
2342.54
30
0
0
SEQEND
8
0
0
POLYLINE
8
0
62
0
66
1
70
8
10
0
20
0
30
0
0
VERTEX
8
0
70
32
10
176.923
20
2220.85
30
0
0
VERTEX
8
0
70
32
10
207.692
20
2220.85
30
0
0
VERTEX
8
0
70
32
10
192.308
20
2247.46
30
0
0
VERTEX
8
0
70
32
10
176.923
20
2220.85
30
0
0
VERTEX
8
0
70
32
10
176.923
20
2220.85
30
0
0
SEQEND
8
0
0
TEXT
8
0
62
0
10
190.385
20
1003.94
30
0
40
34.2254
41
0.72
1
M
50
360
0
CIRCLE
8
0
62
0
10
192.308
20
1019.15
30
0
40
67.3077
0
TEXT
8
0
62
0
10
3305.77
20
1003.94
30
0
40
34.2254
41
0.72
1
M
50
360
0
CIRCLE
8
0
62
0
10
3307.69
20
1019.15
30
0
40
67.3077
0
POLYLINE
8
0
62
0
66
1
70
8
10
0
20
0
30
0
0
VERTEX
8
0
70
32
10
1230.77
20
1064.79
30
0
0
VERTEX
8
0
70
32
10
1230.77
20
1099.01
30
0
0
VERTEX
8
0
70
32
10
192.308
20
1099.01
30
0
0
VERTEX
8
0
70
32
10
192.308
20
1099.01
30
0
0
VERTEX
8
0
70
32
10
192.308
20
1064.79
30
0
0
SEQEND
8
0
0
ARC
8
0
62
0
10
1227.06
20
1095.2
30
0
40
10.2137
50
21.9239
51
68.7253
0
ARC
8
0
62
0
10
1234.48
20
1095.2
30
0
40
10.2136
50
111.298
51
158.1
0
ARC
8
0
62
0
10
1234.47
20
1102.83
30
0
40
10.2138
50
201.947
51
248.748
0
ARC
8
0
62
0
10
1227.06
20
1102.82
30
0
40
10.2134
50
291.321
51
338.123
0
ARC
8
0
62
0
10
1227.06
20
1095.2
30
0
40
10.2137
50
21.9239
51
68.7253
0
ARC
8
0
62
0
10
1234.48
20
1095.2
30
0
40
10.2136
50
111.298
51
158.1
0
ARC
8
0
62
0
10
1234.47
20
1102.83
30
0
40
10.2138
50
201.947
51
248.748
0
ARC
8
0
62
0
10
1227.06
20
1102.82
30
0
40
10.2134
50
291.321
51
338.123
0
ARC
8
0
62
0
10
1227.06
20
1095.2
30
0
40
10.2137
50
21.9239
51
68.7253
0
ARC
8
0
62
0
10
1234.48
20
1095.2
30
0
40
10.2136
50
111.298
51
158.1
0
ARC
8
0
62
0
10
1234.47
20
1102.83
30
0
40
10.2138
50
201.947
51
248.748
0
ARC
8
0
62
0
10
1227.06
20
1102.82
30
0
40
10.2134
50
291.321
51
338.123
0
ARC
8
0
62
0
10
1227.06
20
1095.2
30
0
40
10.2137
50
21.9239
51
68.7253
0
ARC
8
0
62
0
10
1234.48
20
1095.2
30
0
40
10.2136
50
111.298
51
158.1
0
ARC
8
0
62
0
10
1234.47
20
1102.83
30
0
40
10.2138
50
201.947
51
248.748
0
ARC
8
0
62
0
10
1227.06
20
1102.82
30
0
40
10.2134
50
291.321
51
338.123
0
ARC
8
0
62
0
10
1227.06
20
1095.2
30
0
40
10.2137
50
21.9239
51
68.7253
0
ARC
8
0
62
0
10
1234.48
20
1095.2
30
0
40
10.2136
50
111.298
51
158.1
0
ARC
8
0
62
0
10
1234.47
20
1102.83
30
0
40
10.2138
50
201.947
51
248.748
0
ARC
8
0
62
0
10
1227.06
20
1102.82
30
0
40
10.2134
50
291.321
51
338.123
0
ARC
8
0
62
0
10
1227.06
20
1095.2
30
0
40
10.2137
50
21.9239
51
68.7253
0
ARC
8
0
62
0
10
1234.48
20
1095.2
30
0
40
10.2136
50
111.298
51
158.1
0
ARC
8
0
62
0
10
1234.47
20
1102.83
30
0
40
10.2138
50
201.947
51
248.748
0
ARC
8
0
62
0
10
1227.06
20
1102.82
30
0
40
10.2134
50
291.321
51
338.123
0
ARC
8
0
62
0
10
1227.06
20
1095.2
30
0
40
10.2137
50
21.9239
51
68.7253
0
ARC
8
0
62
0
10
1234.48
20
1095.2
30
0
40
10.2136
50
111.298
51
158.1
0
ARC
8
0
62
0
10
1234.47
20
1102.83
30
0
40
10.2138
50
201.947
51
248.748
0
ARC
8
0
62
0
10
1227.06
20
1102.82
30
0
40
10.2134
50
291.321
51
338.123
0
ARC
8
0
62
0
10
1227.06
20
1095.2
30
0
40
10.2137
50
21.9239
51
68.7253
0
ARC
8
0
62
0
10
1234.48
20
1095.2
30
0
40
10.2136
50
111.298
51
158.1
0
ARC
8
0
62
0
10
1234.47
20
1102.83
30
0
40
10.2138
50
201.947
51
248.748
0
ARC
8
0
62
0
10
1227.06
20
1102.82
30
0
40
10.2134
50
291.321
51
338.123
0
ARC
8
0
62
0
10
1227.06
20
1095.2
30
0
40
10.2137
50
21.9239
51
68.7253
0
ARC
8
0
62
0
10
1234.48
20
1095.2
30
0
40
10.2136
50
111.298
51
158.1
0
ARC
8
0
62
0
10
1234.47
20
1102.83
30
0
40
10.2138
50
201.947
51
248.748
0
ARC
8
0
62
0
10
1227.06
20
1102.82
30
0
40
10.2134
50
291.321
51
338.123
0
ARC
8
0
62
0
10
188.602
20
1095.2
30
0
40
10.2137
50
21.9239
51
68.7253
0
ARC
8
0
62
0
10
196.015
20
1095.2
30
0
40
10.2136
50
111.298
51
158.1
0
ARC
8
0
62
0
10
196.012
20
1102.83
30
0
40
10.2138
50
201.947
51
248.748
0
ARC
8
0
62
0
10
188.599
20
1102.82
30
0
40
10.2134
50
291.321
51
338.123
0
ARC
8
0
62
0
10
188.602
20
1095.2
30
0
40
10.2137
50
21.9239
51
68.7253
0
ARC
8
0
62
0
10
196.015
20
1095.2
30
0
40
10.2136
50
111.298
51
158.1
0
ARC
8
0
62
0
10
196.012
20
1102.83
30
0
40
10.2138
50
201.947
51
248.748
0
ARC
8
0
62
0
10
188.599
20
1102.82
30
0
40
10.2134
50
291.321
51
338.123
0
ARC
8
0
62
0
10
188.602
20
1095.2
30
0
40
10.2137
50
21.9239
51
68.7253
0
ARC
8
0
62
0
10
196.015
20
1095.2
30
0
40
10.2136
50
111.298
51
158.1
0
ARC
8
0
62
0
10
196.012
20
1102.83
30
0
40
10.2138
50
201.947
51
248.748
0
ARC
8
0
62
0
10
188.599
20
1102.82
30
0
40
10.2134
50
291.321
51
338.123
0
ARC
8
0
62
0
10
188.602
20
1095.2
30
0
40
10.2137
50
21.9239
51
68.7253
0
ARC
8
0
62
0
10
196.015
20
1095.2
30
0
40
10.2136
50
111.298
51
158.1
0
ARC
8
0
62
0
10
196.012
20
1102.83
30
0
40
10.2138
50
201.947
51
248.748
0
ARC
8
0
62
0
10
188.599
20
1102.82
30
0
40
10.2134
50
291.321
51
338.123
0
ARC
8
0
62
0
10
188.602
20
1095.2
30
0
40
10.2137
50
21.9239
51
68.7253
0
ARC
8
0
62
0
10
196.015
20
1095.2
30
0
40
10.2136
50
111.298
51
158.1
0
ARC
8
0
62
0
10
196.012
20
1102.83
30
0
40
10.2138
50
201.947
51
248.748
0
ARC
8
0
62
0
10
188.599
20
1102.82
30
0
40
10.2134
50
291.321
51
338.123
0
ARC
8
0
62
0
10
188.602
20
1095.2
30
0
40
10.2137
50
21.9239
51
68.7253
0
ARC
8
0
62
0
10
196.015
20
1095.2
30
0
40
10.2136
50
111.298
51
158.1
0
ARC
8
0
62
0
10
196.012
20
1102.83
30
0
40
10.2138
50
201.947
51
248.748
0
ARC
8
0
62
0
10
188.599
20
1102.82
30
0
40
10.2134
50
291.321
51
338.123
0
ARC
8
0
62
0
10
188.602
20
1095.2
30
0
40
10.2137
50
21.9239
51
68.7253
0
ARC
8
0
62
0
10
196.015
20
1095.2
30
0
40
10.2136
50
111.298
51
158.1
0
ARC
8
0
62
0
10
196.012
20
1102.83
30
0
40
10.2138
50
201.947
51
248.748
0
ARC
8
0
62
0
10
188.599
20
1102.82
30
0
40
10.2134
50
291.321
51
338.123
0
ARC
8
0
62
0
10
188.602
20
1095.2
30
0
40
10.2137
50
21.9239
51
68.7253
0
ARC
8
0
62
0
10
196.015
20
1095.2
30
0
40
10.2136
50
111.298
51
158.1
0
ARC
8
0
62
0
10
196.012
20
1102.83
30
0
40
10.2138
50
201.947
51
248.748
0
ARC
8
0
62
0
10
188.599
20
1102.82
30
0
40
10.2134
50
291.321
51
338.123
0
ARC
8
0
62
0
10
188.602
20
1095.2
30
0
40
10.2137
50
21.9239
51
68.7253
0
ARC
8
0
62
0
10
196.015
20
1095.2
30
0
40
10.2136
50
111.298
51
158.1
0
ARC
8
0
62
0
10
196.012
20
1102.83
30
0
40
10.2138
50
201.947
51
248.748
0
ARC
8
0
62
0
10
188.599
20
1102.82
30
0
40
10.2134
50
291.321
51
338.123
0
ARC
8
0
62
0
10
188.602
20
1095.2
30
0
40
10.2137
50
21.9239
51
68.7253
0
ARC
8
0
62
0
10
196.015
20
1095.2
30
0
40
10.2136
50
111.298
51
158.1
0
ARC
8
0
62
0
10
196.012
20
1102.83
30
0
40
10.2138
50
201.947
51
248.748
0
ARC
8
0
62
0
10
188.599
20
1102.82
30
0
40
10.2134
50
291.321
51
338.123
0
ARC
8
0
62
0
10
188.602
20
1095.2
30
0
40
10.2137
50
21.9239
51
68.7253
0
ARC
8
0
62
0
10
196.015
20
1095.2
30
0
40
10.2136
50
111.298
51
158.1
0
ARC
8
0
62
0
10
196.012
20
1102.83
30
0
40
10.2138
50
201.947
51
248.748
0
ARC
8
0
62
0
10
188.599
20
1102.82
30
0
40
10.2134
50
291.321
51
338.123
0
ARC
8
0
62
0
10
188.602
20
1095.2
30
0
40
10.2137
50
21.9239
51
68.7253
0
ARC
8
0
62
0
10
196.015
20
1095.2
30
0
40
10.2136
50
111.298
51
158.1
0
ARC
8
0
62
0
10
196.012
20
1102.83
30
0
40
10.2138
50
201.947
51
248.748
0
ARC
8
0
62
0
10
188.599
20
1102.82
30
0
40
10.2134
50
291.321
51
338.123
0
POLYLINE
8
0
62
0
66
1
70
8
10
0
20
0
30
0
0
VERTEX
8
0
70
32
10
2269.23
20
1064.79
30
0
0
VERTEX
8
0
70
32
10
2269.23
20
1099.01
30
0
0
VERTEX
8
0
70
32
10
1230.77
20
1099.01
30
0
0
VERTEX
8
0
70
32
10
1230.77
20
1099.01
30
0
0
VERTEX
8
0
70
32
10
1230.77
20
1064.79
30
0
0
SEQEND
8
0
0
ARC
8
0
62
0
10
2265.53
20
1095.2
30
0
40
10.2137
50
21.9239
51
68.7253
0
ARC
8
0
62
0
10
2272.94
20
1095.2
30
0
40
10.2136
50
111.298
51
158.1
0
ARC
8
0
62
0
10
2272.94
20
1102.83
30
0
40
10.2138
50
201.947
51
248.748
0
ARC
8
0
62
0
10
2265.52
20
1102.82
30
0
40
10.2134
50
291.321
51
338.123
0
ARC
8
0
62
0
10
2265.53
20
1095.2
30
0
40
10.2137
50
21.9239
51
68.7253
0
ARC
8
0
62
0
10
2272.94
20
1095.2
30
0
40
10.2136
50
111.298
51
158.1
0
ARC
8
0
62
0
10
2272.94
20
1102.83
30
0
40
10.2138
50
201.947
51
248.748
0
ARC
8
0
62
0
10
2265.52
20
1102.82
30
0
40
10.2134
50
291.321
51
338.123
0
ARC
8
0
62
0
10
2265.53
20
1095.2
30
0
40
10.2137
50
21.9239
51
68.7253
0
ARC
8
0
62
0
10
2272.94
20
1095.2
30
0
40
10.2136
50
111.298
51
158.1
0
ARC
8
0
62
0
10
2272.94
20
1102.83
30
0
40
10.2138
50
201.947
51
248.748
0
ARC
8
0
62
0
10
2265.52
20
1102.82
30
0
40
10.2134
50
291.321
51
338.123
0
ARC
8
0
62
0
10
2265.53
20
1095.2
30
0
40
10.2137
50
21.9239
51
68.7253
0
ARC
8
0
62
0
10
2272.94
20
1095.2
30
0
40
10.2136
50
111.298
51
158.1
0
ARC
8
0
62
0
10
2272.94
20
1102.83
30
0
40
10.2138
50
201.947
51
248.748
0
ARC
8
0
62
0
10
2265.52
20
1102.82
30
0
40
10.2134
50
291.321
51
338.123
0
ARC
8
0
62
0
10
2265.53
20
1095.2
30
0
40
10.2137
50
21.9239
51
68.7253
0
ARC
8
0
62
0
10
2272.94
20
1095.2
30
0
40
10.2136
50
111.298
51
158.1
0
ARC
8
0
62
0
10
2272.94
20
1102.83
30
0
40
10.2138
50
201.947
51
248.748
0
ARC
8
0
62
0
10
2265.52
20
1102.82
30
0
40
10.2134
50
291.321
51
338.123
0
ARC
8
0
62
0
10
2265.53
20
1095.2
30
0
40
10.2137
50
21.9239
51
68.7253
0
ARC
8
0
62
0
10
2272.94
20
1095.2
30
0
40
10.2136
50
111.298
51
158.1
0
ARC
8
0
62
0
10
2272.94
20
1102.83
30
0
40
10.2138
50
201.947
51
248.748
0
ARC
8
0
62
0
10
2265.52
20
1102.82
30
0
40
10.2134
50
291.321
51
338.123
0
ARC
8
0
62
0
10
2265.53
20
1095.2
30
0
40
10.2137
50
21.9239
51
68.7253
0
ARC
8
0
62
0
10
2272.94
20
1095.2
30
0
40
10.2136
50
111.298
51
158.1
0
ARC
8
0
62
0
10
2272.94
20
1102.83
30
0
40
10.2138
50
201.947
51
248.748
0
ARC
8
0
62
0
10
2265.52
20
1102.82
30
0
40
10.2134
50
291.321
51
338.123
0
ARC
8
0
62
0
10
1227.06
20
1095.2
30
0
40
10.2137
50
21.9239
51
68.7253
0
ARC
8
0
62
0
10
1234.48
20
1095.2
30
0
40
10.2136
50
111.298
51
158.1
0
ARC
8
0
62
0
10
1234.47
20
1102.83
30
0
40
10.2138
50
201.947
51
248.748
0
ARC
8
0
62
0
10
1227.06
20
1102.82
30
0
40
10.2134
50
291.321
51
338.123
0
ARC
8
0
62
0
10
1227.06
20
1095.2
30
0
40
10.2137
50
21.9239
51
68.7253
0
ARC
8
0
62
0
10
1234.48
20
1095.2
30
0
40
10.2136
50
111.298
51
158.1
0
ARC
8
0
62
0
10
1234.47
20
1102.83
30
0
40
10.2138
50
201.947
51
248.748
0
ARC
8
0
62
0
10
1227.06
20
1102.82
30
0
40
10.2134
50
291.321
51
338.123
0
ARC
8
0
62
0
10
1227.06
20
1095.2
30
0
40
10.2137
50
21.9239
51
68.7253
0
ARC
8
0
62
0
10
1234.48
20
1095.2
30
0
40
10.2136
50
111.298
51
158.1
0
ARC
8
0
62
0
10
1234.47
20
1102.83
30
0
40
10.2138
50
201.947
51
248.748
0
ARC
8
0
62
0
10
1227.06
20
1102.82
30
0
40
10.2134
50
291.321
51
338.123
0
ARC
8
0
62
0
10
1227.06
20
1095.2
30
0
40
10.2137
50
21.9239
51
68.7253
0
ARC
8
0
62
0
10
1234.48
20
1095.2
30
0
40
10.2136
50
111.298
51
158.1
0
ARC
8
0
62
0
10
1234.47
20
1102.83
30
0
40
10.2138
50
201.947
51
248.748
0
ARC
8
0
62
0
10
1227.06
20
1102.82
30
0
40
10.2134
50
291.321
51
338.123
0
ARC
8
0
62
0
10
1227.06
20
1095.2
30
0
40
10.2137
50
21.9239
51
68.7253
0
ARC
8
0
62
0
10
1234.48
20
1095.2
30
0
40
10.2136
50
111.298
51
158.1
0
ARC
8
0
62
0
10
1234.47
20
1102.83
30
0
40
10.2138
50
201.947
51
248.748
0
ARC
8
0
62
0
10
1227.06
20
1102.82
30
0
40
10.2134
50
291.321
51
338.123
0
ARC
8
0
62
0
10
1227.06
20
1095.2
30
0
40
10.2137
50
21.9239
51
68.7253
0
ARC
8
0
62
0
10
1234.48
20
1095.2
30
0
40
10.2136
50
111.298
51
158.1
0
ARC
8
0
62
0
10
1234.47
20
1102.83
30
0
40
10.2138
50
201.947
51
248.748
0
ARC
8
0
62
0
10
1227.06
20
1102.82
30
0
40
10.2134
50
291.321
51
338.123
0
ARC
8
0
62
0
10
1227.06
20
1095.2
30
0
40
10.2137
50
21.9239
51
68.7253
0
ARC
8
0
62
0
10
1234.48
20
1095.2
30
0
40
10.2136
50
111.298
51
158.1
0
ARC
8
0
62
0
10
1234.47
20
1102.83
30
0
40
10.2138
50
201.947
51
248.748
0
ARC
8
0
62
0
10
1227.06
20
1102.82
30
0
40
10.2134
50
291.321
51
338.123
0
ARC
8
0
62
0
10
1227.06
20
1095.2
30
0
40
10.2137
50
21.9239
51
68.7253
0
ARC
8
0
62
0
10
1234.48
20
1095.2
30
0
40
10.2136
50
111.298
51
158.1
0
ARC
8
0
62
0
10
1234.47
20
1102.83
30
0
40
10.2138
50
201.947
51
248.748
0
ARC
8
0
62
0
10
1227.06
20
1102.82
30
0
40
10.2134
50
291.321
51
338.123
0
POLYLINE
8
0
62
0
66
1
70
8
10
0
20
0
30
0
0
VERTEX
8
0
70
32
10
3307.69
20
1064.79
30
0
0
VERTEX
8
0
70
32
10
3307.69
20
1099.01
30
0
0
VERTEX
8
0
70
32
10
2269.23
20
1099.01
30
0
0
VERTEX
8
0
70
32
10
2269.23
20
1099.01
30
0
0
VERTEX
8
0
70
32
10
2269.23
20
1064.79
30
0
0
SEQEND
8
0
0
ARC
8
0
62
0
10
2265.53
20
1095.2
30
0
40
10.2137
50
21.9239
51
68.7253
0
ARC
8
0
62
0
10
2272.94
20
1095.2
30
0
40
10.2136
50
111.298
51
158.1
0
ARC
8
0
62
0
10
2272.94
20
1102.83
30
0
40
10.2138
50
201.947
51
248.748
0
ARC
8
0
62
0
10
2265.52
20
1102.82
30
0
40
10.2134
50
291.321
51
338.123
0
ARC
8
0
62
0
10
2265.53
20
1095.2
30
0
40
10.2137
50
21.9239
51
68.7253
0
ARC
8
0
62
0
10
2272.94
20
1095.2
30
0
40
10.2136
50
111.298
51
158.1
0
ARC
8
0
62
0
10
2272.94
20
1102.83
30
0
40
10.2138
50
201.947
51
248.748
0
ARC
8
0
62
0
10
2265.52
20
1102.82
30
0
40
10.2134
50
291.321
51
338.123
0
ARC
8
0
62
0
10
2265.53
20
1095.2
30
0
40
10.2137
50
21.9239
51
68.7253
0
ARC
8
0
62
0
10
2272.94
20
1095.2
30
0
40
10.2136
50
111.298
51
158.1
0
ARC
8
0
62
0
10
2272.94
20
1102.83
30
0
40
10.2138
50
201.947
51
248.748
0
ARC
8
0
62
0
10
2265.52
20
1102.82
30
0
40
10.2134
50
291.321
51
338.123
0
ARC
8
0
62
0
10
2265.53
20
1095.2
30
0
40
10.2137
50
21.9239
51
68.7253
0
ARC
8
0
62
0
10
2272.94
20
1095.2
30
0
40
10.2136
50
111.298
51
158.1
0
ARC
8
0
62
0
10
2272.94
20
1102.83
30
0
40
10.2138
50
201.947
51
248.748
0
ARC
8
0
62
0
10
2265.52
20
1102.82
30
0
40
10.2134
50
291.321
51
338.123
0
ARC
8
0
62
0
10
2265.53
20
1095.2
30
0
40
10.2137
50
21.9239
51
68.7253
0
ARC
8
0
62
0
10
2272.94
20
1095.2
30
0
40
10.2136
50
111.298
51
158.1
0
ARC
8
0
62
0
10
2272.94
20
1102.83
30
0
40
10.2138
50
201.947
51
248.748
0
ARC
8
0
62
0
10
2265.52
20
1102.82
30
0
40
10.2134
50
291.321
51
338.123
0
ARC
8
0
62
0
10
2265.53
20
1095.2
30
0
40
10.2137
50
21.9239
51
68.7253
0
ARC
8
0
62
0
10
2272.94
20
1095.2
30
0
40
10.2136
50
111.298
51
158.1
0
ARC
8
0
62
0
10
2272.94
20
1102.83
30
0
40
10.2138
50
201.947
51
248.748
0
ARC
8
0
62
0
10
2265.52
20
1102.82
30
0
40
10.2134
50
291.321
51
338.123
0
ARC
8
0
62
0
10
2265.53
20
1095.2
30
0
40
10.2137
50
21.9239
51
68.7253
0
ARC
8
0
62
0
10
2272.94
20
1095.2
30
0
40
10.2136
50
111.298
51
158.1
0
ARC
8
0
62
0
10
2272.94
20
1102.83
30
0
40
10.2138
50
201.947
51
248.748
0
ARC
8
0
62
0
10
2265.52
20
1102.82
30
0
40
10.2134
50
291.321
51
338.123
0
ARC
8
0
62
0
10
2265.53
20
1095.2
30
0
40
10.2137
50
21.9239
51
68.7253
0
ARC
8
0
62
0
10
2272.94
20
1095.2
30
0
40
10.2136
50
111.298
51
158.1
0
ARC
8
0
62
0
10
2272.94
20
1102.83
30
0
40
10.2138
50
201.947
51
248.748
0
ARC
8
0
62
0
10
2265.52
20
1102.82
30
0
40
10.2134
50
291.321
51
338.123
0
POLYLINE
8
0
62
0
66
1
70
8
10
0
20
0
30
0
0
VERTEX
8
0
70
32
10
192.308
20
1064.79
30
0
0
VERTEX
8
0
70
32
10
192.308
20
1099.01
30
0
0
VERTEX
8
0
70
32
10
192.308
20
1597.18
30
0
0
VERTEX
8
0
70
32
10
192.308
20
1597.18
30
0
0
VERTEX
8
0
70
32
10
192.308
20
2095.35
30
0
0
VERTEX
8
0
70
32
10
192.308
20
2095.35
30
0
0
VERTEX
8
0
70
32
10
192.308
20
2129.58
30
0
0
SEQEND
8
0
0
TEXT
8
0
62
0
10
3265.38
20
889.099
30
0
40
34.2254
41
0.72
1
M4: 75HP
50
360
0
TEXT
8
0
62
0
10
1188.46
20
889.099
30
0
40
34.2254
41
0.72
1
M2: 50HP
50
360
0
TEXT
8
0
62
0
10
2226.92
20
889.099
30
0
40
34.2254
41
0.72
1
M3: 100HP
50
360
0
TEXT
8
0
62
0
10
292.308
20
2263.82
30
0
40
34.2254
41
0.72
1
Star-Delta Transformer
50
360
0
TEXT
8
0
62
0
10
150
20
889.099
30
0
40
34.2254
41
0.72
1
M1: 35HP
50
360
0
TEXT
8
0
62
0
10
303.846
20
2182.06
30
0
40
34.2254
41
0.72
1
2500 KVA
50
360
0
TEXT
8
0
62
0
10
303.846
20
2127.3
30
0
40
34.2254
41
0.72
1
6.6kV/415V
50
360
0
TEXT
8
0
62
0
10
303.846
20
2072.54
30
0
40
34.2254
41
0.72
1
%Z: 5%
50
360
0
ENDSEC
0
EOF