999
QET
0
SECTION
2
HEADER
9
$ACADVER
1
AC1006
9
$INSBASE
10
0.0
20
0.0
30
0.0
9
$EXTMIN
10
0.0
20
0.0
9
$EXTMAX
10
4000.0
20
4000.0
9
$LIMMIN
10
0.0
20
0.0
9
$LIMMAX
10
4000.0
20
4000.0
0
ENDSEC
0
SECTION
2
TABLES
0
TABLE
2
VPORT
70
1
0
VPORT
2
*ACTIVE
70
0
10
0
20
0
11
1
21
1
12
2000
22
1350
13
0
23
0
14
1
24
1
15
0
25
0
16
0
26
0
36
1
17
0
27
0
37
0
40
2732.5
41
2.558
42
50
43
0
44
0
50
0
51
0
71
0
72
100
73
1
74
1
75
0
76
0
77
0
78
0
0
ENDTAB
0
TABLE
2
LTYPE
70
1
0
LTYPE
2
CONTINUOUS
70
64
3
Solid Line
72
65
73
0
40
0
0
ENDTAB
0
ENDSEC
0
SECTION
2
BLOCKS
0
ENDSEC
0
SECTION
2
ENTITIES
0
POLYLINE
8
0
62
0
66
1
70
8
10
0
20
0
30
0
0
VERTEX
8
0
70
32
10
19.2308
20
2680.99
30
0
0
VERTEX
8
0
70
32
10
4019.23
20
2680.99
30
0
0
VERTEX
8
0
70
32
10
4019.23
20
-19.0141
30
0
0
VERTEX
8
0
70
32
10
19.2308
20
-19.0141
30
0
0
VERTEX
8
0
70
32
10
19.2308
20
2680.99
30
0
0
SEQEND
8
0
0
POLYLINE
8
0
62
0
66
1
70
8
10
0
20
0
30
0
0
VERTEX
8
0
70
32
10
19.2308
20
2604.93
30
0
0
VERTEX
8
0
70
32
10
96.1538
20
2604.93
30
0
0
VERTEX
8
0
70
32
10
96.1538
20
2680.99
30
0
0
VERTEX
8
0
70
32
10
19.2308
20
2680.99
30
0
0
VERTEX
8
0
70
32
10
19.2308
20
2604.93
30
0
0
SEQEND
8
0
0
POLYLINE
8
0
62
0
66
1
70
8
10
0
20
0
30
0
0
VERTEX
8
0
70
32
10
96.1538
20
2604.93
30
0
0
VERTEX
8
0
70
32
10
326.923
20
2604.93
30
0
0
VERTEX
8
0
70
32
10
326.923
20
2680.99
30
0
0
VERTEX
8
0
70
32
10
96.1538
20
2680.99
30
0
0
VERTEX
8
0
70
32
10
96.1538
20
2604.93
30
0
0
SEQEND
8
0
0
TEXT
8
0
62
0
10
153.846
20
2642.96
30
0
40
53.2394
41
1
1
0
50
0
51
0
72
1
73
2
11
211.538
21
2642.96
31
0
0
POLYLINE
8
0
62
0
66
1
70
8
10
0
20
0
30
0
0
VERTEX
8
0
70
32
10
326.923
20
2604.93
30
0
0
VERTEX
8
0
70
32
10
557.692
20
2604.93
30
0
0
VERTEX
8
0
70
32
10
557.692
20
2680.99
30
0
0
VERTEX
8
0
70
32
10
326.923
20
2680.99
30
0
0
VERTEX
8
0
70
32
10
326.923
20
2604.93
30
0
0
SEQEND
8
0
0
TEXT
8
0
62
0
10
384.615
20
2642.96
30
0
40
53.2394
41
1
1
1
50
0
51
0
72
1
73
2
11
442.308
21
2642.96
31
0
0
POLYLINE
8
0
62
0
66
1
70
8
10
0
20
0
30
0
0
VERTEX
8
0
70
32
10
557.692
20
2604.93
30
0
0
VERTEX
8
0
70
32
10
788.462
20
2604.93
30
0
0
VERTEX
8
0
70
32
10
788.462
20
2680.99
30
0
0
VERTEX
8
0
70
32
10
557.692
20
2680.99
30
0
0
VERTEX
8
0
70
32
10
557.692
20
2604.93
30
0
0
SEQEND
8
0
0
TEXT
8
0
62
0
10
615.385
20
2642.96
30
0
40
53.2394
41
1
1
2
50
0
51
0
72
1
73
2
11
673.077
21
2642.96
31
0
0
POLYLINE
8
0
62
0
66
1
70
8
10
0
20
0
30
0
0
VERTEX
8
0
70
32
10
788.462
20
2604.93
30
0
0
VERTEX
8
0
70
32
10
1019.23
20
2604.93
30
0
0
VERTEX
8
0
70
32
10
1019.23
20
2680.99
30
0
0
VERTEX
8
0
70
32
10
788.462
20
2680.99
30
0
0
VERTEX
8
0
70
32
10
788.462
20
2604.93
30
0
0
SEQEND
8
0
0
TEXT
8
0
62
0
10
846.154
20
2642.96
30
0
40
53.2394
41
1
1
3
50
0
51
0
72
1
73
2
11
903.846
21
2642.96
31
0
0
POLYLINE
8
0
62
0
66
1
70
8
10
0
20
0
30
0
0
VERTEX
8
0
70
32
10
1019.23
20
2604.93
30
0
0
VERTEX
8
0
70
32
10
1250
20
2604.93
30
0
0
VERTEX
8
0
70
32
10
1250
20
2680.99
30
0
0
VERTEX
8
0
70
32
10
1019.23
20
2680.99
30
0
0
VERTEX
8
0
70
32
10
1019.23
20
2604.93
30
0
0
SEQEND
8
0
0
TEXT
8
0
62
0
10
1076.92
20
2642.96
30
0
40
53.2394
41
1
1
4
50
0
51
0
72
1
73
2
11
1134.62
21
2642.96
31
0
0
POLYLINE
8
0
62
0
66
1
70
8
10
0
20
0
30
0
0
VERTEX
8
0
70
32
10
1250
20
2604.93
30
0
0
VERTEX
8
0
70
32
10
1480.77
20
2604.93
30
0
0
VERTEX
8
0
70
32
10
1480.77
20
2680.99
30
0
0
VERTEX
8
0
70
32
10
1250
20
2680.99
30
0
0
VERTEX
8
0
70
32
10
1250
20
2604.93
30
0
0
SEQEND
8
0
0
TEXT
8
0
62
0
10
1307.69
20
2642.96
30
0
40
53.2394
41
1
1
5
50
0
51
0
72
1
73
2
11
1365.38
21
2642.96
31
0
0
POLYLINE
8
0
62
0
66
1
70
8
10
0
20
0
30
0
0
VERTEX
8
0
70
32
10
1480.77
20
2604.93
30
0
0
VERTEX
8
0
70
32
10
1711.54
20
2604.93
30
0
0
VERTEX
8
0
70
32
10
1711.54
20
2680.99
30
0
0
VERTEX
8
0
70
32
10
1480.77
20
2680.99
30
0
0
VERTEX
8
0
70
32
10
1480.77
20
2604.93
30
0
0
SEQEND
8
0
0
TEXT
8
0
62
0
10
1538.46
20
2642.96
30
0
40
53.2394
41
1
1
6
50
0
51
0
72
1
73
2
11
1596.15
21
2642.96
31
0
0
POLYLINE
8
0
62
0
66
1
70
8
10
0
20
0
30
0
0
VERTEX
8
0
70
32
10
1711.54
20
2604.93
30
0
0
VERTEX
8
0
70
32
10
1942.31
20
2604.93
30
0
0
VERTEX
8
0
70
32
10
1942.31
20
2680.99
30
0
0
VERTEX
8
0
70
32
10
1711.54
20
2680.99
30
0
0
VERTEX
8
0
70
32
10
1711.54
20
2604.93
30
0
0
SEQEND
8
0
0
TEXT
8
0
62
0
10
1769.23
20
2642.96
30
0
40
53.2394
41
1
1
7
50
0
51
0
72
1
73
2
11
1826.92
21
2642.96
31
0
0
POLYLINE
8
0
62
0
66
1
70
8
10
0
20
0
30
0
0
VERTEX
8
0
70
32
10
1942.31
20
2604.93
30
0
0
VERTEX
8
0
70
32
10
2173.08
20
2604.93
30
0
0
VERTEX
8
0
70
32
10
2173.08
20
2680.99
30
0
0
VERTEX
8
0
70
32
10
1942.31
20
2680.99
30
0
0
VERTEX
8
0
70
32
10
1942.31
20
2604.93
30
0
0
SEQEND
8
0
0
TEXT
8
0
62
0
10
2000
20
2642.96
30
0
40
53.2394
41
1
1
8
50
0
51
0
72
1
73
2
11
2057.69
21
2642.96
31
0
0
POLYLINE
8
0
62
0
66
1
70
8
10
0
20
0
30
0
0
VERTEX
8
0
70
32
10
2173.08
20
2604.93
30
0
0
VERTEX
8
0
70
32
10
2403.85
20
2604.93
30
0
0
VERTEX
8
0
70
32
10
2403.85
20
2680.99
30
0
0
VERTEX
8
0
70
32
10
2173.08
20
2680.99
30
0
0
VERTEX
8
0
70
32
10
2173.08
20
2604.93
30
0
0
SEQEND
8
0
0
TEXT
8
0
62
0
10
2230.77
20
2642.96
30
0
40
53.2394
41
1
1
9
50
0
51
0
72
1
73
2
11
2288.46
21
2642.96
31
0
0
POLYLINE
8
0
62
0
66
1
70
8
10
0
20
0
30
0
0
VERTEX
8
0
70
32
10
2403.85
20
2604.93
30
0
0
VERTEX
8
0
70
32
10
2634.62
20
2604.93
30
0
0
VERTEX
8
0
70
32
10
2634.62
20
2680.99
30
0
0
VERTEX
8
0
70
32
10
2403.85
20
2680.99
30
0
0
VERTEX
8
0
70
32
10
2403.85
20
2604.93
30
0
0
SEQEND
8
0
0
TEXT
8
0
62
0
10
2461.54
20
2642.96
30
0
40
53.2394
41
1
1
10
50
0
51
0
72
1
73
2
11
2519.23
21
2642.96
31
0
0
POLYLINE
8
0
62
0
66
1
70
8
10
0
20
0
30
0
0
VERTEX
8
0
70
32
10
2634.62
20
2604.93
30
0
0
VERTEX
8
0
70
32
10
2865.38
20
2604.93
30
0
0
VERTEX
8
0
70
32
10
2865.38
20
2680.99
30
0
0
VERTEX
8
0
70
32
10
2634.62
20
2680.99
30
0
0
VERTEX
8
0
70
32
10
2634.62
20
2604.93
30
0
0
SEQEND
8
0
0
TEXT
8
0
62
0
10
2692.31
20
2642.96
30
0
40
53.2394
41
1
1
11
50
0
51
0
72
1
73
2
11
2750
21
2642.96
31
0
0
POLYLINE
8
0
62
0
66
1
70
8
10
0
20
0
30
0
0
VERTEX
8
0
70
32
10
2865.38
20
2604.93
30
0
0
VERTEX
8
0
70
32
10
3096.15
20
2604.93
30
0
0
VERTEX
8
0
70
32
10
3096.15
20
2680.99
30
0
0
VERTEX
8
0
70
32
10
2865.38
20
2680.99
30
0
0
VERTEX
8
0
70
32
10
2865.38
20
2604.93
30
0
0
SEQEND
8
0
0
TEXT
8
0
62
0
10
2923.08
20
2642.96
30
0
40
53.2394
41
1
1
12
50
0
51
0
72
1
73
2
11
2980.77
21
2642.96
31
0
0
POLYLINE
8
0
62
0
66
1
70
8
10
0
20
0
30
0
0
VERTEX
8
0
70
32
10
3096.15
20
2604.93
30
0
0
VERTEX
8
0
70
32
10
3326.92
20
2604.93
30
0
0
VERTEX
8
0
70
32
10
3326.92
20
2680.99
30
0
0
VERTEX
8
0
70
32
10
3096.15
20
2680.99
30
0
0
VERTEX
8
0
70
32
10
3096.15
20
2604.93
30
0
0
SEQEND
8
0
0
TEXT
8
0
62
0
10
3153.85
20
2642.96
30
0
40
53.2394
41
1
1
13
50
0
51
0
72
1
73
2
11
3211.54
21
2642.96
31
0
0
POLYLINE
8
0
62
0
66
1
70
8
10
0
20
0
30
0
0
VERTEX
8
0
70
32
10
3326.92
20
2604.93
30
0
0
VERTEX
8
0
70
32
10
3557.69
20
2604.93
30
0
0
VERTEX
8
0
70
32
10
3557.69
20
2680.99
30
0
0
VERTEX
8
0
70
32
10
3326.92
20
2680.99
30
0
0
VERTEX
8
0
70
32
10
3326.92
20
2604.93
30
0
0
SEQEND
8
0
0
TEXT
8
0
62
0
10
3384.62
20
2642.96
30
0
40
53.2394
41
1
1
14
50
0
51
0
72
1
73
2
11
3442.31
21
2642.96
31
0
0
POLYLINE
8
0
62
0
66
1
70
8
10
0
20
0
30
0
0
VERTEX
8
0
70
32
10
3557.69
20
2604.93
30
0
0
VERTEX
8
0
70
32
10
3788.46
20
2604.93
30
0
0
VERTEX
8
0
70
32
10
3788.46
20
2680.99
30
0
0
VERTEX
8
0
70
32
10
3557.69
20
2680.99
30
0
0
VERTEX
8
0
70
32
10
3557.69
20
2604.93
30
0
0
SEQEND
8
0
0
TEXT
8
0
62
0
10
3615.38
20
2642.96
30
0
40
53.2394
41
1
1
15
50
0
51
0
72
1
73
2
11
3673.08
21
2642.96
31
0
0
POLYLINE
8
0
62
0
66
1
70
8
10
0
20
0
30
0
0
VERTEX
8
0
70
32
10
3788.46
20
2604.93
30
0
0
VERTEX
8
0
70
32
10
4019.23
20
2604.93
30
0
0
VERTEX
8
0
70
32
10
4019.23
20
2680.99
30
0
0
VERTEX
8
0
70
32
10
3788.46
20
2680.99
30
0
0
VERTEX
8
0
70
32
10
3788.46
20
2604.93
30
0
0
SEQEND
8
0
0
TEXT
8
0
62
0
10
3846.15
20
2642.96
30
0
40
53.2394
41
1
1
16
50
0
51
0
72
1
73
2
11
3903.85
21
2642.96
31
0
0
POLYLINE
8
0
62
0
66
1
70
8
10
0
20
0
30
0
0
VERTEX
8
0
70
32
10
19.2308
20
2300.7
30
0
0
VERTEX
8
0
70
32
10
96.1538
20
2300.7
30
0
0
VERTEX
8
0
70
32
10
96.1538
20
2604.93
30
0
0
VERTEX
8
0
70
32
10
19.2308
20
2604.93
30
0
0
VERTEX
8
0
70
32
10
19.2308
20
2300.7
30
0
0
SEQEND
8
0
0
TEXT
8
0
62
0
10
26.9231
20
2422.39
30
0
40
53.8462
41
1
1
A
50
0
51
0
72
1
73
2
11
57.6923
21
2422.39
31
0
0
POLYLINE
8
0
62
0
66
1
70
8
10
0
20
0
30
0
0
VERTEX
8
0
70
32
10
19.2308
20
1996.48
30
0
0
VERTEX
8
0
70
32
10
96.1538
20
1996.48
30
0
0
VERTEX
8
0
70
32
10
96.1538
20
2300.7
30
0
0
VERTEX
8
0
70
32
10
19.2308
20
2300.7
30
0
0
VERTEX
8
0
70
32
10
19.2308
20
1996.48
30
0
0
SEQEND
8
0
0
TEXT
8
0
62
0
10
26.9231
20
2118.17
30
0
40
53.8462
41
1
1
B
50
0
51
0
72
1
73
2
11
57.6923
21
2118.17
31
0
0
POLYLINE
8
0
62
0
66
1
70
8
10
0
20
0
30
0
0
VERTEX
8
0
70
32
10
19.2308
20
1692.25
30
0
0
VERTEX
8
0
70
32
10
96.1538
20
1692.25
30
0
0
VERTEX
8
0
70
32
10
96.1538
20
1996.48
30
0
0
VERTEX
8
0
70
32
10
19.2308
20
1996.48
30
0
0
VERTEX
8
0
70
32
10
19.2308
20
1692.25
30
0
0
SEQEND
8
0
0
TEXT
8
0
62
0
10
26.9231
20
1813.94
30
0
40
53.8462
41
1
1
C
50
0
51
0
72
1
73
2
11
57.6923
21
1813.94
31
0
0
POLYLINE
8
0
62
0
66
1
70
8
10
0
20
0
30
0
0
VERTEX
8
0
70
32
10
19.2308
20
1388.03
30
0
0
VERTEX
8
0
70
32
10
96.1538
20
1388.03
30
0
0
VERTEX
8
0
70
32
10
96.1538
20
1692.25
30
0
0
VERTEX
8
0
70
32
10
19.2308
20
1692.25
30
0
0
VERTEX
8
0
70
32
10
19.2308
20
1388.03
30
0
0
SEQEND
8
0
0
TEXT
8
0
62
0
10
26.9231
20
1509.72
30
0
40
53.8462
41
1
1
D
50
0
51
0
72
1
73
2
11
57.6923
21
1509.72
31
0
0
POLYLINE
8
0
62
0
66
1
70
8
10
0
20
0
30
0
0
VERTEX
8
0
70
32
10
19.2308
20
1083.8
30
0
0
VERTEX
8
0
70
32
10
96.1538
20
1083.8
30
0
0
VERTEX
8
0
70
32
10
96.1538
20
1388.03
30
0
0
VERTEX
8
0
70
32
10
19.2308
20
1388.03
30
0
0
VERTEX
8
0
70
32
10
19.2308
20
1083.8
30
0
0
SEQEND
8
0
0
TEXT
8
0
62
0
10
26.9231
20
1205.49
30
0
40
53.8462
41
1
1
E
50
0
51
0
72
1
73
2
11
57.6923
21
1205.49
31
0
0
POLYLINE
8
0
62
0
66
1
70
8
10
0
20
0
30
0
0
VERTEX
8
0
70
32
10
19.2308
20
779.577
30
0
0
VERTEX
8
0
70
32
10
96.1538
20
779.577
30
0
0
VERTEX
8
0
70
32
10
96.1538
20
1083.8
30
0
0
VERTEX
8
0
70
32
10
19.2308
20
1083.8
30
0
0
VERTEX
8
0
70
32
10
19.2308
20
779.577
30
0
0
SEQEND
8
0
0
TEXT
8
0
62
0
10
26.9231
20
901.268
30
0
40
53.8462
41
1
1
F
50
0
51
0
72
1
73
2
11
57.6923
21
901.268
31
0
0
POLYLINE
8
0
62
0
66
1
70
8
10
0
20
0
30
0
0
VERTEX
8
0
70
32
10
19.2308
20
475.352
30
0
0
VERTEX
8
0
70
32
10
96.1538
20
475.352
30
0
0
VERTEX
8
0
70
32
10
96.1538
20
779.577
30
0
0
VERTEX
8
0
70
32
10
19.2308
20
779.577
30
0
0
VERTEX
8
0
70
32
10
19.2308
20
475.352
30
0
0
SEQEND
8
0
0
TEXT
8
0
62
0
10
26.9231
20
597.042
30
0
40
53.8462
41
1
1
G
50
0
51
0
72
1
73
2
11
57.6923
21
597.042
31
0
0
POLYLINE
8
0
62
0
66
1
70
8
10
0
20
0
30
0
0
VERTEX
8
0
70
32
10
19.2308
20
171.127
30
0
0
VERTEX
8
0
70
32
10
96.1538
20
171.127
30
0
0
VERTEX
8
0
70
32
10
96.1538
20
475.352
30
0
0
VERTEX
8
0
70
32
10
19.2308
20
475.352
30
0
0
VERTEX
8
0
70
32
10
19.2308
20
171.127
30
0
0
SEQEND
8
0
0
TEXT
8
0
62
0
10
26.9231
20
292.817
30
0
40
53.8462
41
1
1
H
50
0
51
0
72
1
73
2
11
57.6923
21
292.817
31
0
0
POLYLINE
8
0
62
0
66
1
70
8
10
0
20
0
30
0
0
VERTEX
8
0
70
32
10
19.2308
20
-19.0141
30
0
0
VERTEX
8
0
70
32
10
4019.23
20
-19.0141
30
0
0
VERTEX
8
0
70
32
10
4019.23
20
171.127
30
0
0
VERTEX
8
0
70
32
10
19.2308
20
171.127
30
0
0
VERTEX
8
0
70
32
10
19.2308
20
-19.0141
30
0
0
SEQEND
8
0
0
POLYLINE
8
0
62
0
66
1
70
8
10
0
20
0
30
0
0
VERTEX
8
0
70
32
10
19.2308
20
76.0563
30
0
0
VERTEX
8
0
70
32
10
900
20
76.0563
30
0
0
VERTEX
8
0
70
32
10
900
20
171.127
30
0
0
VERTEX
8
0
70
32
10
19.2308
20
171.127
30
0
0
VERTEX
8
0
70
32
10
19.2308
20
76.0563
30
0
0
SEQEND
8
0
0
TEXT
8
0
62
0
10
11.5385
20
123.592
30
0
40
34.2254
41
0.815527
1
 Author: Yasteer Sewpersad
50
0
51
0
72
0
73
2
11
19.2308
21
123.592
31
0
0
POLYLINE
8
0
62
0
66
1
70
8
10
0
20
0
30
0
0
VERTEX
8
0
70
32
10
900
20
-19.0141
30
0
0
VERTEX
8
0
70
32
10
3138.46
20
-19.0141
30
0
0
VERTEX
8
0
70
32
10
3138.46
20
171.127
30
0
0
VERTEX
8
0
70
32
10
900
20
171.127
30
0
0
VERTEX
8
0
70
32
10
900
20
-19.0141
30
0
0
SEQEND
8
0
0
TEXT
8
0
62
0
10
892.308
20
76.0563
30
0
40
34.2254
41
1
1
 Direct On Line Motor Starter
50
0
51
0
72
1
73
2
11
2019.23
21
76.0563
31
0
0
POLYLINE
8
0
62
0
66
1
70
8
10
0
20
0
30
0
0
VERTEX
8
0
70
32
10
3138.46
20
76.0563
30
0
0
VERTEX
8
0
70
32
10
4019.23
20
76.0563
30
0
0
VERTEX
8
0
70
32
10
4019.23
20
171.127
30
0
0
VERTEX
8
0
70
32
10
3138.46
20
171.127
30
0
0
VERTEX
8
0
70
32
10
3138.46
20
76.0563
30
0
0
SEQEND
8
0
0
TEXT
8
0
62
0
10
3130.77
20
123.592
30
0
40
34.2254
41
1
1
 File: 
50
0
51
0
72
0
73
2
11
3138.46
21
123.592
31
0
0
POLYLINE
8
0
62
0
66
1
70
8
10
0
20
0
30
0
0
VERTEX
8
0
70
32
10
19.2308
20
-19.0141
30
0
0
VERTEX
8
0
70
32
10
900
20
-19.0141
30
0
0
VERTEX
8
0
70
32
10
900
20
76.0563
30
0
0
VERTEX
8
0
70
32
10
19.2308
20
76.0563
30
0
0
VERTEX
8
0
70
32
10
19.2308
20
-19.0141
30
0
0
SEQEND
8
0
0
TEXT
8
0
62
0
10
11.5385
20
28.5211
30
0
40
34.2254
41
1
1
 Date: 2025/04/12
50
0
51
0
72
0
73
2
11
19.2308
21
28.5211
31
0
0
POLYLINE
8
0
62
0
66
1
70
8
10
0
20
0
30
0
0
VERTEX
8
0
70
32
10
3138.46
20
-19.0141
30
0
0
VERTEX
8
0
70
32
10
4019.23
20
-19.0141
30
0
0
VERTEX
8
0
70
32
10
4019.23
20
76.0563
30
0
0
VERTEX
8
0
70
32
10
3138.46
20
76.0563
30
0
0
VERTEX
8
0
70
32
10
3138.46
20
-19.0141
30
0
0
SEQEND
8
0
0
TEXT
8
0
62
0
10
3130.77
20
28.5211
30
0
40
34.2254
41
1
1
 Folio: 1/1
50
0
51
0
72
0
73
2
11
3138.46
21
28.5211
31
0
0
TEXT
8
0
62
0
10
1023.08
20
1939.44
30
0
40
15.2113
41
0.72
1
5
50
360
0
TEXT
8
0
62
0
10
1023.08
20
1915.1
30
0
40
15.2113
41
0.72
1
L3
50
360
0
TEXT
8
0
62
0
10
1023.08
20
1639.01
30
0
40
15.2113
41
0.72
1
6
50
360
0
TEXT
8
0
62
0
10
1023.08
20
1614.68
30
0
40
15.2113
41
0.72
1
T3
50
360
0
TEXT
8
0
62
0
10
946.154
20
1639.01
30
0
40
15.2113
41
0.72
1
4
50
360
0
TEXT
8
0
62
0
10
946.154
20
1614.68
30
0
40
15.2113
41
0.72
1
T2
50
360
0
TEXT
8
0
62
0
10
946.154
20
1939.44
30
0
40
15.2113
41
0.72
1
3
50
360
0
TEXT
8
0
62
0
10
946.154
20
1915.1
30
0
40
15.2113
41
0.72
1
L2
50
360
0
TEXT
8
0
62
0
10
869.231
20
1639.01
30
0
40
15.2113
41
0.72
1
2
50
360
0
TEXT
8
0
62
0
10
869.231
20
1614.68
30
0
40
15.2113
41
0.72
1
T1
50
360
0
TEXT
8
0
62
0
10
921.154
20
1692.25
30
0
40
34.2254
41
0.72
1
I>
50
360
0
TEXT
8
0
62
0
10
998.077
20
1692.25
30
0
40
34.2254
41
0.72
1
I>
50
360
0
TEXT
8
0
62
0
10
844.231
20
1692.25
30
0
40
34.2254
41
0.72
1
I>
50
360
0
TEXT
8
0
62
0
10
869.231
20
1939.44
30
0
40
15.2113
41
0.72
1
1
50
360
0
TEXT
8
0
62
0
10
869.231
20
1915.1
30
0
40
15.2113
41
0.72
1
L1
50
360
0
LINE
8
0
62
0
10
1000
20
1680.85
30
0
11
1000
21
1635.21
31
0
0
LINE
8
0
62
0
10
923.077
20
1680.85
30
0
11
923.077
21
1635.21
31
0
0
LINE
8
0
62
0
10
692.115
20
1863.57
30
0
11
692.115
21
1833.15
31
0
0
LINE
8
0
62
0
10
711.538
20
1688.45
30
0
11
711.538
21
1658.03
31
0
0
LINE
8
0
62
0
10
853.846
20
1897.61
30
0
11
838.462
21
1882.39
31
0
0
LINE
8
0
62
0
10
838.462
20
1897.61
30
0
11
853.846
21
1882.39
31
0
0
LINE
8
0
62
0
10
930.769
20
1897.61
30
0
11
915.385
21
1882.39
31
0
0
LINE
8
0
62
0
10
915.385
20
1897.61
30
0
11
930.769
21
1882.39
31
0
0
LINE
8
0
62
0
10
1007.69
20
1897.61
30
0
11
992.308
21
1882.39
31
0
0
LINE
8
0
62
0
10
992.308
20
1897.61
30
0
11
1007.69
21
1882.39
31
0
0
LINE
8
0
62
0
10
1000
20
1912.82
30
0
11
1000
21
1905.21
31
0
0
LINE
8
0
62
0
10
846.154
20
1890
30
0
11
846.154
21
1939.44
31
0
0
LINE
8
0
62
0
10
1000
20
1890
30
0
11
1000
21
1939.44
31
0
0
LINE
8
0
62
0
10
923.077
20
1890
30
0
11
923.077
21
1939.44
31
0
0
LINE
8
0
62
0
10
846.154
20
1680.85
30
0
11
846.154
21
1635.21
31
0
0
LINE
8
0
62
0
10
807.692
20
1760.7
30
0
11
769.231
21
1760.7
31
0
0
LINE
8
0
62
0
10
807.692
20
1707.46
30
0
11
769.231
21
1707.46
31
0
0
LINE
8
0
62
0
10
769.231
20
1825.35
30
0
11
769.231
21
1673.24
31
0
0
LINE
8
0
62
0
10
769.231
20
1870.99
30
0
11
769.231
21
1825.35
31
0
0
LINE
8
0
62
0
10
746.154
20
1848.17
30
0
11
792.308
21
1848.17
31
0
0
LINE
8
0
62
0
10
792.308
20
1848.17
30
0
11
984.615
21
1848.17
31
0
0
LINE
8
0
62
0
10
692.308
20
1848.17
30
0
11
746.154
21
1848.17
31
0
0
POLYLINE
8
0
62
0
66
1
70
8
10
0
20
0
30
0
0
VERTEX
8
0
70
32
10
807.692
20
1787.32
30
0
0
VERTEX
8
0
70
32
10
884.615
20
1787.32
30
0
0
VERTEX
8
0
70
32
10
884.615
20
1734.08
30
0
0
VERTEX
8
0
70
32
10
807.692
20
1734.08
30
0
0
VERTEX
8
0
70
32
10
807.692
20
1787.32
30
0
0
SEQEND
8
0
0
POLYLINE
8
0
62
0
66
1
70
8
10
0
20
0
30
0
0
VERTEX
8
0
70
32
10
961.538
20
1734.08
30
0
0
VERTEX
8
0
70
32
10
1038.46
20
1734.08
30
0
0
VERTEX
8
0
70
32
10
1038.46
20
1680.85
30
0
0
VERTEX
8
0
70
32
10
961.538
20
1680.85
30
0
0
VERTEX
8
0
70
32
10
961.538
20
1734.08
30
0
0
SEQEND
8
0
0
POLYLINE
8
0
62
0
66
1
70
8
10
0
20
0
30
0
0
VERTEX
8
0
70
32
10
807.692
20
1734.08
30
0
0
VERTEX
8
0
70
32
10
884.615
20
1734.08
30
0
0
VERTEX
8
0
70
32
10
884.615
20
1680.85
30
0
0
VERTEX
8
0
70
32
10
807.692
20
1680.85
30
0
0
VERTEX
8
0
70
32
10
807.692
20
1734.08
30
0
0
SEQEND
8
0
0
POLYLINE
8
0
62
0
66
1
70
8
10
0
20
0
30
0
0
VERTEX
8
0
70
32
10
884.615
20
1734.08
30
0
0
VERTEX
8
0
70
32
10
961.538
20
1734.08
30
0
0
VERTEX
8
0
70
32
10
961.538
20
1680.85
30
0
0
VERTEX
8
0
70
32
10
884.615
20
1680.85
30
0
0
VERTEX
8
0
70
32
10
884.615
20
1734.08
30
0
0
SEQEND
8
0
0
POLYLINE
8
0
62
0
66
1
70
8
10
0
20
0
30
0
0
VERTEX
8
0
70
32
10
961.538
20
1787.32
30
0
0
VERTEX
8
0
70
32
10
1038.46
20
1787.32
30
0
0
VERTEX
8
0
70
32
10
1038.46
20
1734.08
30
0
0
VERTEX
8
0
70
32
10
961.538
20
1734.08
30
0
0
VERTEX
8
0
70
32
10
961.538
20
1787.32
30
0
0
SEQEND
8
0
0
POLYLINE
8
0
62
0
66
1
70
8
10
0
20
0
30
0
0
VERTEX
8
0
70
32
10
884.615
20
1787.32
30
0
0
VERTEX
8
0
70
32
10
961.538
20
1787.32
30
0
0
VERTEX
8
0
70
32
10
961.538
20
1734.08
30
0
0
VERTEX
8
0
70
32
10
884.615
20
1734.08
30
0
0
VERTEX
8
0
70
32
10
884.615
20
1787.32
30
0
0
SEQEND
8
0
0
POLYLINE
8
0
62
0
66
1
70
8
10
0
20
0
30
0
0
VERTEX
8
0
70
32
10
746.154
20
1870.99
30
0
0
VERTEX
8
0
70
32
10
792.308
20
1870.99
30
0
0
VERTEX
8
0
70
32
10
792.308
20
1825.35
30
0
0
VERTEX
8
0
70
32
10
746.154
20
1825.35
30
0
0
VERTEX
8
0
70
32
10
746.154
20
1870.99
30
0
0
SEQEND
8
0
0
POLYLINE
8
0
62
0
66
1
70
8
10
0
20
0
30
0
0
VERTEX
8
0
70
32
10
1000
20
1734.08
30
0
0
VERTEX
8
0
70
32
10
1000
20
1749.3
30
0
0
VERTEX
8
0
70
32
10
1019.23
20
1749.3
30
0
0
VERTEX
8
0
70
32
10
1019.23
20
1772.11
30
0
0
VERTEX
8
0
70
32
10
1000
20
1772.11
30
0
0
VERTEX
8
0
70
32
10
1000
20
1813.94
30
0
0
VERTEX
8
0
70
32
10
973.077
20
1882.39
30
0
0
SEQEND
8
0
0
POLYLINE
8
0
62
0
66
1
70
8
10
0
20
0
30
0
0
VERTEX
8
0
70
32
10
923.077
20
1734.08
30
0
0
VERTEX
8
0
70
32
10
923.077
20
1749.3
30
0
0
VERTEX
8
0
70
32
10
942.308
20
1749.3
30
0
0
VERTEX
8
0
70
32
10
942.308
20
1772.11
30
0
0
VERTEX
8
0
70
32
10
923.077
20
1772.11
30
0
0
VERTEX
8
0
70
32
10
923.077
20
1813.94
30
0
0
VERTEX
8
0
70
32
10
896.154
20
1882.39
30
0
0
SEQEND
8
0
0
POLYLINE
8
0
62
0
66
1
70
8
10
0
20
0
30
0
0
VERTEX
8
0
70
32
10
711.538
20
1673.24
30
0
0
VERTEX
8
0
70
32
10
734.615
20
1673.24
30
0
0
VERTEX
8
0
70
32
10
742.308
20
1661.83
30
0
0
VERTEX
8
0
70
32
10
750
20
1673.24
30
0
0
VERTEX
8
0
70
32
10
769.231
20
1673.24
30
0
0
SEQEND
8
0
0
POLYLINE
8
0
62
0
66
1
70
8
10
0
20
0
30
0
0
VERTEX
8
0
70
32
10
846.154
20
1734.08
30
0
0
VERTEX
8
0
70
32
10
846.154
20
1749.3
30
0
0
VERTEX
8
0
70
32
10
865.385
20
1749.3
30
0
0
VERTEX
8
0
70
32
10
865.385
20
1772.11
30
0
0
VERTEX
8
0
70
32
10
846.154
20
1772.11
30
0
0
VERTEX
8
0
70
32
10
846.154
20
1813.94
30
0
0
VERTEX
8
0
70
32
10
819.231
20
1882.39
30
0
0
SEQEND
8
0
0
POLYLINE
8
0
62
0
66
1
70
8
10
0
20
0
30
0
0
VERTEX
8
0
70
32
10
723.077
20
1840.56
30
0
0
VERTEX
8
0
70
32
10
723.077
20
1855.77
30
0
0
VERTEX
8
0
70
32
10
707.692
20
1848.17
30
0
0
VERTEX
8
0
70
32
10
723.077
20
1840.56
30
0
0
VERTEX
8
0
70
32
10
723.077
20
1840.56
30
0
0
SEQEND
8
0
0
LINE
8
0
62
0
10
1538.46
20
2015.49
30
0
11
1538.46
21
1969.86
31
0
0
LINE
8
0
62
0
10
1538.46
20
1909.01
30
0
11
1538.46
21
1863.38
31
0
0
POLYLINE
8
0
62
0
66
1
70
8
10
0
20
0
30
0
0
VERTEX
8
0
70
32
10
1484.62
20
1969.86
30
0
0
VERTEX
8
0
70
32
10
1592.31
20
1969.86
30
0
0
VERTEX
8
0
70
32
10
1592.31
20
1909.01
30
0
0
VERTEX
8
0
70
32
10
1484.62
20
1909.01
30
0
0
VERTEX
8
0
70
32
10
1484.62
20
1969.86
30
0
0
SEQEND
8
0
0
TEXT
8
0
62
0
10
950
20
1407.04
30
0
40
15.2113
41
0.72
1
3
50
360
0
TEXT
8
0
62
0
10
950
20
1382.7
30
0
40
15.2113
41
0.72
1
L2
50
360
0
TEXT
8
0
62
0
10
1026.92
20
1407.04
30
0
40
15.2113
41
0.72
1
5
50
360
0
TEXT
8
0
62
0
10
1026.92
20
1382.7
30
0
40
15.2113
41
0.72
1
L3
50
360
0
TEXT
8
0
62
0
10
946.154
20
1258.73
30
0
40
15.2113
41
0.72
1
4
50
360
0
TEXT
8
0
62
0
10
946.154
20
1234.39
30
0
40
15.2113
41
0.72
1
T2
50
360
0
TEXT
8
0
62
0
10
869.231
20
1258.73
30
0
40
15.2113
41
0.72
1
2
50
360
0
TEXT
8
0
62
0
10
869.231
20
1234.39
30
0
40
15.2113
41
0.72
1
T1
50
360
0
TEXT
8
0
62
0
10
1023.08
20
1258.73
30
0
40
15.2113
41
0.72
1
6
50
360
0
TEXT
8
0
62
0
10
1023.08
20
1234.39
30
0
40
15.2113
41
0.72
1
T3
50
360
0
TEXT
8
0
62
0
10
869.231
20
1407.04
30
0
40
15.2113
41
0.72
1
1
50
360
0
TEXT
8
0
62
0
10
869.231
20
1382.7
30
0
40
15.2113
41
0.72
1
L1
50
360
0
LINE
8
0
62
0
10
846.154
20
1407.04
30
0
11
846.154
21
1369.01
31
0
0
LINE
8
0
62
0
10
923.077
20
1407.04
30
0
11
923.077
21
1369.01
31
0
0
LINE
8
0
62
0
10
1000
20
1407.04
30
0
11
1000
21
1369.01
31
0
0
LINE
8
0
62
0
10
834.615
20
1330.99
30
0
11
988.462
21
1330.99
31
0
0
POLYLINE
8
0
62
0
66
1
70
8
10
0
20
0
30
0
0
VERTEX
8
0
70
32
10
980.769
20
1369.01
30
0
0
VERTEX
8
0
70
32
10
1000
20
1292.96
30
0
0
VERTEX
8
0
70
32
10
1000
20
1254.93
30
0
0
SEQEND
8
0
0
POLYLINE
8
0
62
0
66
1
70
8
10
0
20
0
30
0
0
VERTEX
8
0
70
32
10
826.923
20
1369.01
30
0
0
VERTEX
8
0
70
32
10
846.154
20
1292.96
30
0
0
VERTEX
8
0
70
32
10
846.154
20
1254.93
30
0
0
SEQEND
8
0
0
POLYLINE
8
0
62
0
66
1
70
8
10
0
20
0
30
0
0
VERTEX
8
0
70
32
10
903.846
20
1369.01
30
0
0
VERTEX
8
0
70
32
10
923.077
20
1292.96
30
0
0
VERTEX
8
0
70
32
10
923.077
20
1254.93
30
0
0
SEQEND
8
0
0
ARC
8
0
62
0
10
852.332
20
1382.97
30
0
40
17.0226
50
201.9
51
248.702
0
ARC
8
0
62
0
10
852.328
20
1370.26
30
0
40
17.0231
50
111.252
51
158.053
0
ARC
8
0
62
0
10
929.255
20
1382.97
30
0
40
17.0226
50
201.9
51
248.702
0
ARC
8
0
62
0
10
929.251
20
1370.26
30
0
40
17.0231
50
111.252
51
158.053
0
ARC
8
0
62
0
10
1006.18
20
1382.97
30
0
40
17.0226
50
201.9
51
248.702
0
ARC
8
0
62
0
10
1006.17
20
1370.26
30
0
40
17.0231
50
111.252
51
158.053
0
TEXT
8
0
62
0
10
898.077
20
802.394
30
0
40
34.2254
41
0.72
1
3 ~
50
360
0
TEXT
8
0
62
0
10
923.077
20
848.028
30
0
40
30.4225
41
0.72
1
M
50
360
0
LINE
8
0
62
0
10
923.077
20
908.873
30
0
11
923.077
21
893.662
31
0
0
LINE
8
0
62
0
10
1000
20
1022.96
30
0
11
1000
21
984.93
31
0
0
LINE
8
0
62
0
10
923.077
20
1022.96
30
0
11
923.077
21
984.93
31
0
0
LINE
8
0
62
0
10
846.154
20
1022.96
30
0
11
846.154
21
984.93
31
0
0
CIRCLE
8
0
62
0
10
923.077
20
836.62
30
0
40
57.6923
0
POLYLINE
8
0
62
0
66
1
70
8
10
0
20
0
30
0
0
VERTEX
8
0
70
32
10
1000
20
908.873
30
0
0
VERTEX
8
0
70
32
10
1000
20
764.366
30
0
0
VERTEX
8
0
70
32
10
1000
20
760.563
30
0
0
VERTEX
8
0
70
32
10
957.692
20
790.986
30
0
0
SEQEND
8
0
0
POLYLINE
8
0
62
0
66
1
70
8
10
0
20
0
30
0
0
VERTEX
8
0
70
32
10
842.308
20
908.873
30
0
0
VERTEX
8
0
70
32
10
842.308
20
760.563
30
0
0
VERTEX
8
0
70
32
10
892.308
20
790.986
30
0
0
VERTEX
8
0
70
32
10
892.308
20
790.986
30
0
0
SEQEND
8
0
0
ARC
8
0
62
0
10
995.076
20
963.671
30
0
40
21.8205
50
32.58
51
76.9545
0
ARC
8
0
62
0
10
995.076
20
987.174
30
0
40
21.8205
50
283.045
51
327.42
0
ARC
8
0
62
0
10
918.152
20
963.671
30
0
40
21.8205
50
32.58
51
76.9545
0
ARC
8
0
62
0
10
918.152
20
987.174
30
0
40
21.8205
50
283.045
51
327.42
0
ARC
8
0
62
0
10
841.229
20
963.671
30
0
40
21.8205
50
32.58
51
76.9545
0
ARC
8
0
62
0
10
841.229
20
987.174
30
0
40
21.8205
50
283.045
51
327.42
0
ARC
8
0
62
0
10
995.076
20
925.643
30
0
40
21.8205
50
32.58
51
76.9545
0
ARC
8
0
62
0
10
995.076
20
949.146
30
0
40
21.8205
50
283.045
51
327.42
0
ARC
8
0
62
0
10
918.152
20
925.643
30
0
40
21.8205
50
32.58
51
76.9545
0
ARC
8
0
62
0
10
918.152
20
949.146
30
0
40
21.8205
50
283.045
51
327.42
0
ARC
8
0
62
0
10
841.229
20
925.643
30
0
40
21.8205
50
32.58
51
76.9545
0
ARC
8
0
62
0
10
841.229
20
949.146
30
0
40
21.8205
50
283.045
51
327.42
0
ARC
8
0
62
0
10
995.076
20
906.629
30
0
40
21.8205
50
32.58
51
76.9545
0
ARC
8
0
62
0
10
995.076
20
930.131
30
0
40
21.8205
50
283.045
51
327.42
0
ARC
8
0
62
0
10
918.152
20
906.629
30
0
40
21.8205
50
32.58
51
76.9545
0
ARC
8
0
62
0
10
918.152
20
930.131
30
0
40
21.8205
50
283.045
51
327.42
0
ARC
8
0
62
0
10
841.229
20
906.629
30
0
40
21.8205
50
32.58
51
76.9545
0
ARC
8
0
62
0
10
841.229
20
930.131
30
0
40
21.8205
50
283.045
51
327.42
0
ARC
8
0
62
0
10
995.076
20
944.657
30
0
40
21.8205
50
32.58
51
76.9545
0
ARC
8
0
62
0
10
995.076
20
968.16
30
0
40
21.8205
50
283.045
51
327.42
0
ARC
8
0
62
0
10
918.152
20
944.657
30
0
40
21.8205
50
32.58
51
76.9545
0
ARC
8
0
62
0
10
918.152
20
968.16
30
0
40
21.8205
50
283.045
51
327.42
0
ARC
8
0
62
0
10
841.229
20
944.657
30
0
40
21.8205
50
32.58
51
76.9545
0
ARC
8
0
62
0
10
841.229
20
968.16
30
0
40
21.8205
50
283.045
51
327.42
0
TEXT
8
0
62
0
10
155.769
20
2080.14
30
0
40
19.0141
41
0.72
1
L3
50
360
0
TEXT
8
0
62
0
10
155.769
20
2156.2
30
0
40
19.0141
41
0.72
1
L2
50
360
0
TEXT
8
0
62
0
10
155.769
20
2232.25
30
0
40
19.0141
41
0.72
1
L1
50
360
0
LINE
8
0
62
0
10
192.308
20
2091.55
30
0
11
230.769
21
2091.55
31
0
0
LINE
8
0
62
0
10
192.308
20
2167.61
30
0
11
230.769
21
2167.61
31
0
0
LINE
8
0
62
0
10
192.308
20
2243.66
30
0
11
230.769
21
2243.66
31
0
0
LINE
8
0
62
0
10
846.154
20
1106.62
30
0
11
846.154
21
1133.24
31
0
0
LINE
8
0
62
0
10
846.154
20
1216.9
30
0
11
846.154
21
1190.28
31
0
0
LINE
8
0
62
0
10
846.154
20
1167.46
30
0
11
846.154
21
1156.06
31
0
0
CIRCLE
8
0
62
0
10
846.154
20
1144.65
30
0
40
9.61538
0
CIRCLE
8
0
62
0
10
846.154
20
1178.87
30
0
40
9.61538
0
LINE
8
0
62
0
10
1615.38
20
1178.87
30
0
11
1642.31
21
1178.87
31
0
0
LINE
8
0
62
0
10
1692.31
20
1178.87
30
0
11
1665.38
21
1178.87
31
0
0
CIRCLE
8
0
62
0
10
1653.85
20
1178.87
30
0
40
9.61538
0
LINE
8
0
62
0
10
923.077
20
1106.62
30
0
11
923.077
21
1133.24
31
0
0
LINE
8
0
62
0
10
923.077
20
1216.9
30
0
11
923.077
21
1190.28
31
0
0
LINE
8
0
62
0
10
923.077
20
1167.46
30
0
11
923.077
21
1156.06
31
0
0
CIRCLE
8
0
62
0
10
923.077
20
1144.65
30
0
40
9.61538
0
CIRCLE
8
0
62
0
10
923.077
20
1178.87
30
0
40
9.61538
0
LINE
8
0
62
0
10
2846.15
20
1407.04
30
0
11
2807.69
21
1407.04
31
0
0
POLYLINE
8
0
62
0
66
1
70
8
10
0
20
0
30
0
0
VERTEX
8
0
70
32
10
2807.69
20
1426.06
30
0
0
VERTEX
8
0
70
32
10
2730.77
20
1407.04
30
0
0
VERTEX
8
0
70
32
10
2692.31
20
1407.04
30
0
0
SEQEND
8
0
0
LINE
8
0
62
0
10
1615.38
20
1407.04
30
0
11
1642.31
21
1407.04
31
0
0
LINE
8
0
62
0
10
1692.31
20
1407.04
30
0
11
1665.38
21
1407.04
31
0
0
CIRCLE
8
0
62
0
10
1653.85
20
1407.04
30
0
40
9.61538
0
TEXT
8
0
62
0
10
2096.15
20
1519.23
30
0
40
34.2254
41
0.72
1
I>
50
270
0
LINE
8
0
62
0
10
2138.46
20
1547.75
30
0
11
2138.46
21
1471.69
31
0
0
LINE
8
0
62
0
10
2173.08
20
1407.04
30
0
11
2230.77
21
1407.04
31
0
0
LINE
8
0
62
0
10
2096.15
20
1407.04
30
0
11
2173.08
21
1445.07
31
0
0
LINE
8
0
62
0
10
2038.46
20
1407.04
30
0
11
2096.15
21
1407.04
31
0
0
LINE
8
0
62
0
10
2134.62
20
1464.08
30
0
11
2134.62
21
1433.66
31
0
0
POLYLINE
8
0
62
0
66
1
70
8
10
0
20
0
30
0
0
VERTEX
8
0
70
32
10
2084.62
20
1547.75
30
0
0
VERTEX
8
0
70
32
10
2192.31
20
1547.75
30
0
0
VERTEX
8
0
70
32
10
2192.31
20
1471.69
30
0
0
VERTEX
8
0
70
32
10
2084.62
20
1471.69
30
0
0
VERTEX
8
0
70
32
10
2084.62
20
1547.75
30
0
0
SEQEND
8
0
0
POLYLINE
8
0
62
0
66
1
70
8
10
0
20
0
30
0
0
VERTEX
8
0
70
32
10
2138.46
20
1509.72
30
0
0
VERTEX
8
0
70
32
10
2153.85
20
1509.72
30
0
0
VERTEX
8
0
70
32
10
2153.85
20
1490.7
30
0
0
VERTEX
8
0
70
32
10
2176.92
20
1490.7
30
0
0
VERTEX
8
0
70
32
10
2176.92
20
1509.72
30
0
0
VERTEX
8
0
70
32
10
2192.31
20
1509.72
30
0
0
VERTEX
8
0
70
32
10
2192.31
20
1509.72
30
0
0
SEQEND
8
0
0
LINE
8
0
62
0
10
1000
20
1106.62
30
0
11
1000
21
1133.24
31
0
0
LINE
8
0
62
0
10
1000
20
1216.9
30
0
11
1000
21
1190.28
31
0
0
LINE
8
0
62
0
10
1000
20
1167.46
30
0
11
1000
21
1156.06
31
0
0
CIRCLE
8
0
62
0
10
1000
20
1144.65
30
0
40
9.61538
0
CIRCLE
8
0
62
0
10
1000
20
1178.87
30
0
40
9.61538
0
LINE
8
0
62
0
10
1423.08
20
1369.01
30
0
11
1423.08
21
1323.38
31
0
0
LINE
8
0
62
0
10
1423.08
20
1262.54
30
0
11
1423.08
21
1216.9
31
0
0
POLYLINE
8
0
62
0
66
1
70
8
10
0
20
0
30
0
0
VERTEX
8
0
70
32
10
1369.23
20
1323.38
30
0
0
VERTEX
8
0
70
32
10
1476.92
20
1323.38
30
0
0
VERTEX
8
0
70
32
10
1476.92
20
1262.54
30
0
0
VERTEX
8
0
70
32
10
1369.23
20
1262.54
30
0
0
VERTEX
8
0
70
32
10
1369.23
20
1323.38
30
0
0
SEQEND
8
0
0
LINE
8
0
62
0
10
2469.23
20
1422.25
30
0
11
2461.54
21
1410.85
31
0
0
LINE
8
0
62
0
10
2469.23
20
1422.25
30
0
11
2461.54
21
1422.25
31
0
0
LINE
8
0
62
0
10
2496.15
20
1407.04
30
0
11
2496.15
21
1384.23
31
0
0
LINE
8
0
62
0
10
2538.46
20
1407.04
30
0
11
2496.15
21
1407.04
31
0
0
LINE
8
0
62
0
10
2480.77
20
1433.66
30
0
11
2442.31
21
1433.66
31
0
0
LINE
8
0
62
0
10
2461.54
20
1433.66
30
0
11
2461.54
21
1395.63
31
0
0
POLYLINE
8
0
62
0
66
1
70
8
10
0
20
0
30
0
0
VERTEX
8
0
70
32
10
2500
20
1388.03
30
0
0
VERTEX
8
0
70
32
10
2423.08
20
1407.04
30
0
0
VERTEX
8
0
70
32
10
2384.62
20
1407.04
30
0
0
SEQEND
8
0
0
ARC
8
0
62
0
10
2470.21
20
1419.19
30
0
40
31.3801
50
106.017
51
151.892
0
ARC
8
0
62
0
10
2452.87
20
1419.21
30
0
40
31.365
50
28.0542
51
73.945
0
TEXT
8
0
62
0
10
3209.62
20
2194.23
30
0
40
19.0141
41
0.72
1
AC 1~
50
360
0
TEXT
8
0
62
0
10
3353.85
20
2076.34
30
0
40
22.8169
41
0.72
1
-
50
360
0
TEXT
8
0
62
0
10
3430.77
20
2076.34
30
0
40
22.8169
41
0.72
1
-
50
360
0
TEXT
8
0
62
0
10
3200
20
2239.86
30
0
40
22.8169
41
0.72
1
L
50
360
0
TEXT
8
0
62
0
10
3338.41
20
2120.59
30
0
40
19.0141
41
0.72
1
24V DC
50
360
0
TEXT
8
0
62
0
10
3269.23
20
2076.34
30
0
40
22.8169
41
0.72
1
+
50
360
0
TEXT
8
0
62
0
10
3415.38
20
2239.86
30
0
40
22.8169
41
0.72
1
PE
50
360
0
TEXT
8
0
62
0
10
3350
20
2239.86
30
0
40
22.8169
41
0.72
1
N
50
360
0
TEXT
8
0
62
0
10
3192.31
20
2076.34
30
0
40
22.8169
41
0.72
1
+
50
360
0
LINE
8
0
62
0
10
3357.69
20
2053.52
30
0
11
3411.54
21
2053.52
31
0
0
LINE
8
0
62
0
10
3280.77
20
2053.52
30
0
11
3334.62
21
2053.52
31
0
0
LINE
8
0
62
0
10
3203.85
20
2053.52
30
0
11
3257.69
21
2053.52
31
0
0
LINE
8
0
62
0
10
3202.88
20
2281.69
30
0
11
3334.62
21
2281.69
31
0
0
LINE
8
0
62
0
10
3357.69
20
2281.69
30
0
11
3411.54
21
2281.69
31
0
0
LINE
8
0
62
0
10
3423.08
20
2224.65
30
0
11
3192.31
21
2110.56
31
0
0
POLYLINE
8
0
62
0
66
1
70
8
10
0
20
0
30
0
0
VERTEX
8
0
70
32
10
3192.31
20
2224.65
30
0
0
VERTEX
8
0
70
32
10
3423.08
20
2224.65
30
0
0
VERTEX
8
0
70
32
10
3423.08
20
2110.56
30
0
0
VERTEX
8
0
70
32
10
3192.31
20
2110.56
30
0
0
VERTEX
8
0
70
32
10
3192.31
20
2224.65
30
0
0
SEQEND
8
0
0
CIRCLE
8
0
62
0
10
3423.08
20
2281.69
30
0
40
9.61538
0
CIRCLE
8
0
62
0
10
3346.15
20
2281.69
30
0
40
9.61538
0
CIRCLE
8
0
62
0
10
3192.31
20
2053.52
30
0
40
9.61538
0
CIRCLE
8
0
62
0
10
3423.08
20
2053.52
30
0
40
9.61538
0
CIRCLE
8
0
62
0
10
3269.23
20
2053.52
30
0
40
9.61538
0
CIRCLE
8
0
62
0
10
3346.15
20
2053.52
30
0
40
9.61538
0
CIRCLE
8
0
62
0
10
3192.31
20
2281.69
30
0
40
9.61538
0
POLYLINE
8
0
62
0
66
1
70
8
10
0
20
0
30
0
0
VERTEX
8
0
70
32
10
3180.77
20
2053.52
30
0
0
VERTEX
8
0
70
32
10
3134.62
20
2053.52
30
0
0
VERTEX
8
0
70
32
10
3134.62
20
2281.23
30
0
0
VERTEX
8
0
70
32
10
3180.77
20
2281.23
30
0
0
VERTEX
8
0
70
32
10
3180.77
20
2281.23
30
0
0
VERTEX
8
0
70
32
10
3180.77
20
2281.23
30
0
0
SEQEND
8
0
0
POLYLINE
8
0
62
0
66
1
70
8
10
0
20
0
30
0
0
VERTEX
8
0
70
32
10
3434.62
20
2282.22
30
0
0
VERTEX
8
0
70
32
10
3480.77
20
2282.22
30
0
0
VERTEX
8
0
70
32
10
3480.77
20
2053.52
30
0
0
VERTEX
8
0
70
32
10
3434.62
20
2053.52
30
0
0
VERTEX
8
0
70
32
10
3434.62
20
2053.52
30
0
0
VERTEX
8
0
70
32
10
3434.62
20
2053.52
30
0
0
SEQEND
8
0
0
TEXT
8
0
62
0
10
894.231
20
1502.11
30
0
40
34.2254
41
0.72
1
CICT
50
360
0
POLYLINE
8
0
62
0
66
1
70
8
10
0
20
0
30
0
0
VERTEX
8
0
70
32
10
807.692
20
1559.15
30
0
0
VERTEX
8
0
70
32
10
1038.46
20
1559.15
30
0
0
VERTEX
8
0
70
32
10
1038.46
20
1483.1
30
0
0
VERTEX
8
0
70
32
10
807.692
20
1483.1
30
0
0
VERTEX
8
0
70
32
10
807.692
20
1559.15
30
0
0
SEQEND
8
0
0
TEXT
8
0
62
0
10
155.769
20
2346.34
30
0
40
19.0141
41
0.72
1
PE
50
360
0
TEXT
8
0
62
0
10
155.769
20
2422.39
30
0
40
19.0141
41
0.72
1
N
50
360
0
TEXT
8
0
62
0
10
155.769
20
2498.45
30
0
40
19.0141
41
0.72
1
L
50
360
0
LINE
8
0
62
0
10
192.308
20
2357.75
30
0
11
230.769
21
2357.75
31
0
0
LINE
8
0
62
0
10
192.308
20
2509.86
30
0
11
230.769
21
2509.86
31
0
0
LINE
8
0
62
0
10
192.308
20
2433.8
30
0
11
230.769
21
2433.8
31
0
0
LINE
8
0
62
0
10
3269.23
20
1597.18
30
0
11
3269.23
21
1521.13
31
0
0
LINE
8
0
62
0
10
3269.23
20
1597.18
30
0
11
3269.23
21
1616.2
31
0
0
LINE
8
0
62
0
10
3269.23
20
1521.13
30
0
11
3269.23
21
1502.11
31
0
0
LINE
8
0
62
0
10
3269.23
20
1616.2
30
0
11
3269.23
21
1502.11
31
0
0
POLYLINE
8
0
62
0
66
1
70
8
10
0
20
0
30
0
0
VERTEX
8
0
70
32
10
3257.69
20
1597.18
30
0
0
VERTEX
8
0
70
32
10
3280.77
20
1597.18
30
0
0
VERTEX
8
0
70
32
10
3280.77
20
1521.13
30
0
0
VERTEX
8
0
70
32
10
3257.69
20
1521.13
30
0
0
VERTEX
8
0
70
32
10
3257.69
20
1597.18
30
0
0
SEQEND
8
0
0
POLYLINE
8
0
62
0
66
1
70
8
10
0
20
0
30
0
0
VERTEX
8
0
70
32
10
1750
20
2129.58
30
0
0
VERTEX
8
0
70
32
10
2019.23
20
2129.58
30
0
0
VERTEX
8
0
70
32
10
2019.23
20
1749.3
30
0
0
VERTEX
8
0
70
32
10
1750
20
1749.3
30
0
0
VERTEX
8
0
70
32
10
1750
20
2129.58
30
0
0
SEQEND
8
0
0
LINE
8
0
62
0
10
2307.69
20
1977.46
30
0
11
2230.77
21
1977.46
31
0
0
LINE
8
0
62
0
10
2307.69
20
1977.46
30
0
11
2326.92
21
1977.46
31
0
0
LINE
8
0
62
0
10
2230.77
20
1977.46
30
0
11
2211.54
21
1977.46
31
0
0
LINE
8
0
62
0
10
2326.92
20
1977.46
30
0
11
2211.54
21
1977.46
31
0
0
POLYLINE
8
0
62
0
66
1
70
8
10
0
20
0
30
0
0
VERTEX
8
0
70
32
10
2230.77
20
1988.87
30
0
0
VERTEX
8
0
70
32
10
2307.69
20
1988.87
30
0
0
VERTEX
8
0
70
32
10
2307.69
20
1966.06
30
0
0
VERTEX
8
0
70
32
10
2230.77
20
1966.06
30
0
0
VERTEX
8
0
70
32
10
2230.77
20
1988.87
30
0
0
SEQEND
8
0
0
POLYLINE
8
0
62
0
66
1
70
8
10
0
20
0
30
0
0
VERTEX
8
0
70
32
10
2000
20
2053.52
30
0
0
VERTEX
8
0
70
32
10
2034.62
20
2053.52
30
0
0
VERTEX
8
0
70
32
10
2076.92
20
2053.52
30
0
0
VERTEX
8
0
70
32
10
2076.92
20
1977.46
30
0
0
VERTEX
8
0
70
32
10
2176.92
20
1977.46
30
0
0
VERTEX
8
0
70
32
10
2211.54
20
1977.46
30
0
0
SEQEND
8
0
0
POLYLINE
8
0
62
0
66
1
70
8
10
0
20
0
30
0
0
VERTEX
8
0
70
32
10
2000
20
1825.35
30
0
0
VERTEX
8
0
70
32
10
2034.62
20
1825.35
30
0
0
VERTEX
8
0
70
32
10
3346.15
20
1825.35
30
0
0
VERTEX
8
0
70
32
10
3346.15
20
2007.89
30
0
0
VERTEX
8
0
70
32
10
3346.15
20
2042.11
30
0
0
SEQEND
8
0
0
POLYLINE
8
0
62
0
66
1
70
8
10
0
20
0
30
0
0
VERTEX
8
0
70
32
10
230.769
20
2509.86
30
0
0
VERTEX
8
0
70
32
10
265.385
20
2509.86
30
0
0
VERTEX
8
0
70
32
10
3192.31
20
2509.86
30
0
0
VERTEX
8
0
70
32
10
3192.31
20
2327.32
30
0
0
VERTEX
8
0
70
32
10
3192.31
20
2293.1
30
0
0
SEQEND
8
0
0
POLYLINE
8
0
62
0
66
1
70
8
10
0
20
0
30
0
0
VERTEX
8
0
70
32
10
230.769
20
2357.75
30
0
0
VERTEX
8
0
70
32
10
265.385
20
2357.75
30
0
0
VERTEX
8
0
70
32
10
3423.08
20
2357.75
30
0
0
VERTEX
8
0
70
32
10
3423.08
20
2327.32
30
0
0
VERTEX
8
0
70
32
10
3423.08
20
2293.1
30
0
0
SEQEND
8
0
0
POLYLINE
8
0
62
0
66
1
70
8
10
0
20
0
30
0
0
VERTEX
8
0
70
32
10
2326.92
20
1977.46
30
0
0
VERTEX
8
0
70
32
10
2361.54
20
1977.46
30
0
0
VERTEX
8
0
70
32
10
3192.31
20
1977.46
30
0
0
VERTEX
8
0
70
32
10
3192.31
20
2007.89
30
0
0
VERTEX
8
0
70
32
10
3192.31
20
2042.11
30
0
0
SEQEND
8
0
0
POLYLINE
8
0
62
0
66
1
70
8
10
0
20
0
30
0
0
VERTEX
8
0
70
32
10
1538.46
20
1859.58
30
0
0
VERTEX
8
0
70
32
10
1538.46
20
1825.35
30
0
0
VERTEX
8
0
70
32
10
1753.85
20
1825.35
30
0
0
VERTEX
8
0
70
32
10
1753.85
20
1825.35
30
0
0
VERTEX
8
0
70
32
10
1788.46
20
1825.35
30
0
0
SEQEND
8
0
0
POLYLINE
8
0
62
0
66
1
70
8
10
0
20
0
30
0
0
VERTEX
8
0
70
32
10
1538.46
20
2019.3
30
0
0
VERTEX
8
0
70
32
10
1538.46
20
2053.52
30
0
0
VERTEX
8
0
70
32
10
1538.46
20
2053.52
30
0
0
VERTEX
8
0
70
32
10
1753.85
20
2053.52
30
0
0
VERTEX
8
0
70
32
10
1788.46
20
2053.52
30
0
0
SEQEND
8
0
0
POLYLINE
8
0
62
0
66
1
70
8
10
0
20
0
30
0
0
VERTEX
8
0
70
32
10
230.769
20
2433.8
30
0
0
VERTEX
8
0
70
32
10
470.513
20
2433.8
30
0
0
VERTEX
8
0
70
32
10
679.487
20
2433.8
30
0
0
VERTEX
8
0
70
32
10
679.487
20
2433.8
30
0
0
VERTEX
8
0
70
32
10
3346.15
20
2433.8
30
0
0
VERTEX
8
0
70
32
10
3346.15
20
2293.1
30
0
0
SEQEND
8
0
0
POLYLINE
8
0
62
0
66
1
70
8
10
0
20
0
30
0
0
VERTEX
8
0
70
32
10
1923.08
20
1768.31
30
0
0
VERTEX
8
0
70
32
10
1923.08
20
1774.01
30
0
0
VERTEX
8
0
70
32
10
1923.08
20
1502.11
30
0
0
VERTEX
8
0
70
32
10
1474.36
20
1502.11
30
0
0
VERTEX
8
0
70
32
10
1474.36
20
1502.11
30
0
0
VERTEX
8
0
70
32
10
1041.02
20
1502.11
30
0
0
VERTEX
8
0
70
32
10
1019.23
20
1502.11
30
0
0
SEQEND
8
0
0
POLYLINE
8
0
62
0
66
1
70
8
10
0
20
0
30
0
0
VERTEX
8
0
70
32
10
1846.15
20
1768.31
30
0
0
VERTEX
8
0
70
32
10
1846.15
20
1802.54
30
0
0
VERTEX
8
0
70
32
10
1846.15
20
1711.27
30
0
0
VERTEX
8
0
70
32
10
1846.15
20
1711.27
30
0
0
VERTEX
8
0
70
32
10
1846.15
20
1635.21
30
0
0
VERTEX
8
0
70
32
10
1846.15
20
1635.21
30
0
0
VERTEX
8
0
70
32
10
1846.15
20
1540.14
30
0
0
VERTEX
8
0
70
32
10
1044.23
20
1540.14
30
0
0
VERTEX
8
0
70
32
10
1019.23
20
1540.14
30
0
0
SEQEND
8
0
0
POLYLINE
8
0
62
0
66
1
70
8
10
0
20
0
30
0
0
VERTEX
8
0
70
32
10
2692.31
20
1407.04
30
0
0
VERTEX
8
0
70
32
10
2657.69
20
1407.04
30
0
0
VERTEX
8
0
70
32
10
2615.38
20
1407.04
30
0
0
VERTEX
8
0
70
32
10
2615.38
20
1407.04
30
0
0
VERTEX
8
0
70
32
10
2573.08
20
1407.04
30
0
0
VERTEX
8
0
70
32
10
2538.46
20
1407.04
30
0
0
SEQEND
8
0
0
TEXT
8
0
62
0
10
2719.23
20
1511.24
30
0
40
26.6197
41
0.72
1
PLC Start
50
360
0
POLYLINE
8
0
62
0
66
1
70
8
10
0
20
0
30
0
0
VERTEX
8
0
70
32
10
1692.31
20
1178.87
30
0
0
VERTEX
8
0
70
32
10
1726.92
20
1178.87
30
0
0
VERTEX
8
0
70
32
10
3423.08
20
1178.87
30
0
0
VERTEX
8
0
70
32
10
3423.08
20
2007.89
30
0
0
VERTEX
8
0
70
32
10
3423.08
20
2042.11
30
0
0
SEQEND
8
0
0
POLYLINE
8
0
62
0
66
1
70
8
10
0
20
0
30
0
0
VERTEX
8
0
70
32
10
2384.62
20
1407.04
30
0
0
VERTEX
8
0
70
32
10
2350
20
1407.04
30
0
0
VERTEX
8
0
70
32
10
2307.69
20
1407.04
30
0
0
VERTEX
8
0
70
32
10
2307.69
20
1407.04
30
0
0
VERTEX
8
0
70
32
10
2265.38
20
1407.04
30
0
0
VERTEX
8
0
70
32
10
2230.77
20
1407.04
30
0
0
SEQEND
8
0
0
TEXT
8
0
62
0
10
2411.54
20
1511.24
30
0
40
26.6197
41
0.72
1
Isolator
50
360
0
POLYLINE
8
0
62
0
66
1
70
8
10
0
20
0
30
0
0
VERTEX
8
0
70
32
10
3269.23
20
1616.2
30
0
0
VERTEX
8
0
70
32
10
3269.23
20
1650.42
30
0
0
VERTEX
8
0
70
32
10
3269.23
20
1863.38
30
0
0
VERTEX
8
0
70
32
10
3269.23
20
1863.38
30
0
0
VERTEX
8
0
70
32
10
3269.23
20
2007.89
30
0
0
VERTEX
8
0
70
32
10
3269.23
20
2042.11
30
0
0
SEQEND
8
0
0
POLYLINE
8
0
62
0
66
1
70
8
10
0
20
0
30
0
0
VERTEX
8
0
70
32
10
2846.15
20
1407.04
30
0
0
VERTEX
8
0
70
32
10
2880.77
20
1407.04
30
0
0
VERTEX
8
0
70
32
10
3269.23
20
1407.04
30
0
0
VERTEX
8
0
70
32
10
3269.23
20
1467.89
30
0
0
VERTEX
8
0
70
32
10
3269.23
20
1502.11
30
0
0
SEQEND
8
0
0
POLYLINE
8
0
62
0
66
1
70
8
10
0
20
0
30
0
0
VERTEX
8
0
70
32
10
1000
20
1106.62
30
0
0
VERTEX
8
0
70
32
10
1000
20
1072.39
30
0
0
VERTEX
8
0
70
32
10
1000
20
1102.82
30
0
0
VERTEX
8
0
70
32
10
1000
20
1102.82
30
0
0
VERTEX
8
0
70
32
10
1000
20
1060.99
30
0
0
VERTEX
8
0
70
32
10
1000
20
1026.76
30
0
0
SEQEND
8
0
0
POLYLINE
8
0
62
0
66
1
70
8
10
0
20
0
30
0
0
VERTEX
8
0
70
32
10
923.077
20
1939.44
30
0
0
VERTEX
8
0
70
32
10
923.077
20
1973.66
30
0
0
VERTEX
8
0
70
32
10
923.077
20
2167.61
30
0
0
VERTEX
8
0
70
32
10
265.385
20
2167.61
30
0
0
VERTEX
8
0
70
32
10
230.769
20
2167.61
30
0
0
SEQEND
8
0
0
POLYLINE
8
0
62
0
66
1
70
8
10
0
20
0
30
0
0
VERTEX
8
0
70
32
10
846.154
20
1254.93
30
0
0
VERTEX
8
0
70
32
10
846.154
20
1220.7
30
0
0
VERTEX
8
0
70
32
10
846.154
20
1220.7
30
0
0
VERTEX
8
0
70
32
10
846.154
20
1251.13
30
0
0
VERTEX
8
0
70
32
10
846.154
20
1251.13
30
0
0
VERTEX
8
0
70
32
10
846.154
20
1216.9
30
0
0
SEQEND
8
0
0
POLYLINE
8
0
62
0
66
1
70
8
10
0
20
0
30
0
0
VERTEX
8
0
70
32
10
1000
20
1939.44
30
0
0
VERTEX
8
0
70
32
10
1000
20
1973.66
30
0
0
VERTEX
8
0
70
32
10
1000
20
2091.55
30
0
0
VERTEX
8
0
70
32
10
265.385
20
2091.55
30
0
0
VERTEX
8
0
70
32
10
230.769
20
2091.55
30
0
0
SEQEND
8
0
0
POLYLINE
8
0
62
0
66
1
70
8
10
0
20
0
30
0
0
VERTEX
8
0
70
32
10
1000
20
1254.93
30
0
0
VERTEX
8
0
70
32
10
1000
20
1220.7
30
0
0
VERTEX
8
0
70
32
10
1000
20
1220.7
30
0
0
VERTEX
8
0
70
32
10
1000
20
1251.13
30
0
0
VERTEX
8
0
70
32
10
1000
20
1251.13
30
0
0
VERTEX
8
0
70
32
10
1000
20
1216.9
30
0
0
SEQEND
8
0
0
POLYLINE
8
0
62
0
66
1
70
8
10
0
20
0
30
0
0
VERTEX
8
0
70
32
10
846.154
20
1635.21
30
0
0
VERTEX
8
0
70
32
10
846.154
20
1600.99
30
0
0
VERTEX
8
0
70
32
10
846.154
20
1521.13
30
0
0
VERTEX
8
0
70
32
10
846.154
20
1521.13
30
0
0
VERTEX
8
0
70
32
10
846.154
20
1441.27
30
0
0
VERTEX
8
0
70
32
10
846.154
20
1407.04
30
0
0
SEQEND
8
0
0
POLYLINE
8
0
62
0
66
1
70
8
10
0
20
0
30
0
0
VERTEX
8
0
70
32
10
846.154
20
1106.62
30
0
0
VERTEX
8
0
70
32
10
846.154
20
1072.39
30
0
0
VERTEX
8
0
70
32
10
846.154
20
1102.82
30
0
0
VERTEX
8
0
70
32
10
846.154
20
1102.82
30
0
0
VERTEX
8
0
70
32
10
846.154
20
1060.99
30
0
0
VERTEX
8
0
70
32
10
846.154
20
1026.76
30
0
0
SEQEND
8
0
0
POLYLINE
8
0
62
0
66
1
70
8
10
0
20
0
30
0
0
VERTEX
8
0
70
32
10
923.077
20
1106.62
30
0
0
VERTEX
8
0
70
32
10
923.077
20
1072.39
30
0
0
VERTEX
8
0
70
32
10
923.077
20
1102.82
30
0
0
VERTEX
8
0
70
32
10
923.077
20
1102.82
30
0
0
VERTEX
8
0
70
32
10
923.077
20
1060.99
30
0
0
VERTEX
8
0
70
32
10
923.077
20
1026.76
30
0
0
SEQEND
8
0
0
POLYLINE
8
0
62
0
66
1
70
8
10
0
20
0
30
0
0
VERTEX
8
0
70
32
10
923.077
20
1635.21
30
0
0
VERTEX
8
0
70
32
10
923.077
20
1600.99
30
0
0
VERTEX
8
0
70
32
10
923.077
20
1521.13
30
0
0
VERTEX
8
0
70
32
10
923.077
20
1521.13
30
0
0
VERTEX
8
0
70
32
10
923.077
20
1441.27
30
0
0
VERTEX
8
0
70
32
10
923.077
20
1407.04
30
0
0
SEQEND
8
0
0
POLYLINE
8
0
62
0
66
1
70
8
10
0
20
0
30
0
0
VERTEX
8
0
70
32
10
1000
20
1635.21
30
0
0
VERTEX
8
0
70
32
10
1000
20
1600.99
30
0
0
VERTEX
8
0
70
32
10
1000
20
1521.13
30
0
0
VERTEX
8
0
70
32
10
1000
20
1521.13
30
0
0
VERTEX
8
0
70
32
10
1000
20
1441.27
30
0
0
VERTEX
8
0
70
32
10
1000
20
1407.04
30
0
0
SEQEND
8
0
0
POLYLINE
8
0
62
0
66
1
70
8
10
0
20
0
30
0
0
VERTEX
8
0
70
32
10
846.154
20
1939.44
30
0
0
VERTEX
8
0
70
32
10
846.154
20
1973.66
30
0
0
VERTEX
8
0
70
32
10
846.154
20
2243.66
30
0
0
VERTEX
8
0
70
32
10
265.385
20
2243.66
30
0
0
VERTEX
8
0
70
32
10
230.769
20
2243.66
30
0
0
SEQEND
8
0
0
POLYLINE
8
0
62
0
66
1
70
8
10
0
20
0
30
0
0
VERTEX
8
0
70
32
10
923.077
20
1254.93
30
0
0
VERTEX
8
0
70
32
10
923.077
20
1220.7
30
0
0
VERTEX
8
0
70
32
10
923.077
20
1220.7
30
0
0
VERTEX
8
0
70
32
10
923.077
20
1251.13
30
0
0
VERTEX
8
0
70
32
10
923.077
20
1251.13
30
0
0
VERTEX
8
0
70
32
10
923.077
20
1216.9
30
0
0
SEQEND
8
0
0
POLYLINE
8
0
62
0
66
1
70
8
10
0
20
0
30
0
0
VERTEX
8
0
70
32
10
1423.08
20
1372.82
30
0
0
VERTEX
8
0
70
32
10
1423.08
20
1407.04
30
0
0
VERTEX
8
0
70
32
10
1423.08
20
1407.04
30
0
0
VERTEX
8
0
70
32
10
1580.77
20
1407.04
30
0
0
VERTEX
8
0
70
32
10
1615.38
20
1407.04
30
0
0
SEQEND
8
0
0
POLYLINE
8
0
62
0
66
1
70
8
10
0
20
0
30
0
0
VERTEX
8
0
70
32
10
1423.08
20
1213.1
30
0
0
VERTEX
8
0
70
32
10
1423.08
20
1178.87
30
0
0
VERTEX
8
0
70
32
10
1580.77
20
1178.87
30
0
0
VERTEX
8
0
70
32
10
1580.77
20
1178.87
30
0
0
VERTEX
8
0
70
32
10
1615.38
20
1178.87
30
0
0
SEQEND
8
0
0
POLYLINE
8
0
62
0
66
1
70
8
10
0
20
0
30
0
0
VERTEX
8
0
70
32
10
2038.46
20
1407.04
30
0
0
VERTEX
8
0
70
32
10
2003.85
20
1407.04
30
0
0
VERTEX
8
0
70
32
10
1846.15
20
1407.04
30
0
0
VERTEX
8
0
70
32
10
1846.15
20
1407.04
30
0
0
VERTEX
8
0
70
32
10
1726.92
20
1407.04
30
0
0
VERTEX
8
0
70
32
10
1692.31
20
1407.04
30
0
0
SEQEND
8
0
0
TEXT
8
0
62
0
10
1561.54
20
1867.06
30
0
40
15.2113
41
0.72
1
A2
50
360
0
TEXT
8
0
62
0
10
1561.54
20
2003.96
30
0
40
15.2113
41
0.72
1
A1
50
360
0
TEXT
8
0
62
0
10
1111.54
20
1725.72
30
0
40
34.2254
41
0.72
1
MCB1
50
360
0
TEXT
8
0
62
0
10
188.462
20
2029.94
30
0
40
34.2254
41
0.72
1
525V AC, 50Hz
50
360
0
TEXT
8
0
62
0
10
1034.62
20
1307.41
30
0
40
34.2254
41
0.72
1
LCN1
50
360
0
TEXT
8
0
62
0
10
1380.77
20
1915.86
30
0
40
34.2254
41
0.72
1
RLY1
50
360
0
TEXT
8
0
62
0
10
188.462
20
2296.14
30
0
40
34.2254
41
0.72
1
110VAC, 50Hz
50
360
0
TEXT
8
0
62
0
10
1842.31
20
1877.83
30
0
40
34.2254
41
0.72
1
250mA_
50
360
0
TEXT
8
0
62
0
10
1226.92
20
1269.38
30
0
40
34.2254
41
0.72
1
LCN1
50
360
0
TEXT
8
0
62
0
10
1446.15
20
1357.48
30
0
40
15.2113
41
0.72
1
A1
50
360
0
TEXT
8
0
62
0
10
1446.15
20
1220.58
30
0
40
15.2113
41
0.72
1
A2
50
360
0
TEXT
8
0
62
0
10
1776.92
20
2088.51
30
0
40
22.8169
41
0.72
1
Earth Fault Relay
50
360
0
TEXT
8
0
62
0
10
1111.54
20
927.127
30
0
40
34.2254
41
0.72
1
Working Principle:
50
360
0
TEXT
8
0
62
0
10
1111.54
20
872.366
30
0
40
34.2254
41
0.72
1
Earth Fault Relay To Monitor Phase Currents Via Current Imbalance Current Transformer.
50
360
0
TEXT
8
0
62
0
10
1111.54
20
817.606
30
0
40
34.2254
41
0.72
1
A Non-Zero Current Indicates An Earth Fault Which Activates RLY1.
50
360
0
TEXT
8
0
62
0
10
1111.54
20
762.845
30
0
40
34.2254
41
0.72
1
RLY1 Will Shunt Trip MCB1 If Earth Fault Present Else LCN1 Will Close.
50
360
0
ENDSEC
0
EOF